solid Pinpad
facet normal -6.288676026235799e-15 2.3642834724632184e-13 -1.0
  outer loop
    vertex 222.20427836696246 131.48582835766902 5.499999999999733
    vertex 219.00427836696247 131.48582835766902 5.499999999999747
    vertex 222.20427836696257 132.6858283576691 5.499999999999961
  endloop
endfacet
facet normal -6.288676026235799e-15 2.3642834724632184e-13 -1.0
  outer loop
    vertex 219.00427836696247 132.68582835766907 5.499999999999988
    vertex 222.20427836696257 132.6858283576691 5.499999999999961
    vertex 219.00427836696247 131.48582835766902 5.499999999999747
  endloop
endfacet
facet normal 2.8190268969141114e-16 1.0 -2.9964689609274355e-16
  outer loop
    vertex 212.20427836696248 132.68582835767006 1.4999999999999867
    vertex 212.20427836696248 132.68582835766912 5.499999999999986
    vertex 215.1042783669626 132.68582835767006 1.5000000000000007
  endloop
endfacet
facet normal 2.8190268969141114e-16 1.0 -2.9964689609274355e-16
  outer loop
    vertex 205.10427836696238 132.68582835767006 1.4999999999999962
    vertex 205.10427836696243 132.68582835767006 12.50000000000009
    vertex 209.0042783669624 132.68582835767003 1.5000000000000135
  endloop
endfacet
facet normal 2.8190268969141114e-16 1.0 -2.9964689609274355e-16
  outer loop
    vertex 209.00427836696244 132.68582835766907 5.500000000000012
    vertex 209.0042783669624 132.68582835767003 1.5000000000000135
    vertex 205.10427836696243 132.68582835767006 12.50000000000009
  endloop
endfacet
facet normal 2.8190268969141114e-16 1.0 -2.9964689609274355e-16
  outer loop
    vertex 215.1042783669626 132.68582835767003 12.500000000000059
    vertex 209.00427836696244 132.68582835766907 5.500000000000012
    vertex 205.10427836696243 132.68582835767006 12.50000000000009
  endloop
endfacet
facet normal 2.8190268969141114e-16 1.0 -2.9964689609274355e-16
  outer loop
    vertex 212.20427836696248 132.68582835766912 5.499999999999986
    vertex 209.00427836696244 132.68582835766907 5.500000000000012
    vertex 215.1042783669626 132.68582835767003 12.500000000000059
  endloop
endfacet
facet normal 2.8190268969141114e-16 1.0 -2.9964689609274355e-16
  outer loop
    vertex 215.1042783669626 132.68582835767006 1.5000000000000007
    vertex 212.20427836696248 132.68582835766912 5.499999999999986
    vertex 215.1042783669626 132.68582835767003 12.500000000000059
  endloop
endfacet
facet normal 1.2639485565975e-17 9.815890519388596e-16 -1.0
  outer loop
    vertex 209.00427836696232 131.48582835766996 4.754517831401855e-15
    vertex 204.1042783669625 131.48582835766996 1.0222378499237481e-14
    vertex 209.0042783669625 133.68582835767006 1.1204737396203315e-14
  endloop
endfacet
facet normal 1.2639485565975e-17 9.815890519388596e-16 -1.0
  outer loop
    vertex 204.10427836696252 133.68582835767 6.450219564802954e-15
    vertex 209.0042783669625 133.68582835767006 1.1204737396203315e-14
    vertex 204.1042783669625 131.48582835766996 1.0222378499237481e-14
  endloop
endfacet
facet normal 1.2536876580676664e-15 1.4049300635813542e-14 1.0
  outer loop
    vertex 205.10427836696266 180.68582835766992 1.5000000000000213
    vertex 207.60427836696257 180.68582835767 1.5000000000000242
    vertex 205.10427836696275 181.68582835766998 1.5000000000000295
  endloop
endfacet
facet normal 1.2536876580676664e-15 1.4049300635813542e-14 1.0
  outer loop
    vertex 210.60427836696263 180.68582835767 1.500000000000023
    vertex 205.10427836696275 181.68582835766998 1.5000000000000295
    vertex 207.60427836696257 180.68582835767 1.5000000000000242
  endloop
endfacet
facet normal 1.2536876580676664e-15 1.4049300635813542e-14 1.0
  outer loop
    vertex 226.1042783669628 181.68582835766995 1.4999999999999845
    vertex 205.10427836696275 181.68582835766998 1.5000000000000295
    vertex 210.60427836696263 180.68582835767 1.500000000000023
  endloop
endfacet
facet normal 1.2536876580676664e-15 1.4049300635813542e-14 1.0
  outer loop
    vertex 220.60427836696275 180.6858283576699 1.5000000000000575
    vertex 223.60427836696263 180.68582835766998 1.5000000000000226
    vertex 210.60427836696263 180.68582835767 1.500000000000023
  endloop
endfacet
facet normal 1.2536876580676664e-15 1.4049300635813542e-14 1.0
  outer loop
    vertex 226.10427836696275 180.68582835766998 1.4999999999999774
    vertex 210.60427836696263 180.68582835767 1.500000000000023
    vertex 223.60427836696263 180.68582835766998 1.5000000000000226
  endloop
endfacet
facet normal 1.2536876580676664e-15 1.4049300635813542e-14 1.0
  outer loop
    vertex 226.1042783669628 181.68582835766995 1.4999999999999845
    vertex 210.60427836696263 180.68582835767 1.500000000000023
    vertex 226.10427836696275 180.68582835766998 1.4999999999999774
  endloop
endfacet
facet normal -0.1305261922200492 8.44335329578007e-16 0.9914448613738107
  outer loop
    vertex 212.02778311502638 133.68582835767006 1.6874079554101666
    vertex 212.02778311502655 180.68582835767023 1.6874079554101287
    vertex 210.60427836696243 133.68582835767018 1.500000000000024
  endloop
endfacet
facet normal -0.1305261922200492 8.44335329578007e-16 0.9914448613738107
  outer loop
    vertex 210.60427836696263 180.68582835767 1.500000000000023
    vertex 210.60427836696243 133.68582835767018 1.500000000000024
    vertex 212.02778311502655 180.68582835767023 1.6874079554101287
  endloop
endfacet
facet normal -0.9914448613738182 3.1301485011397235e-16 0.13052619221999387
  outer loop
    vertex 225.91687041155262 134.48582835767027 5.576495251936047
    vertex 226.10427836696266 134.48582835767016 6.999999999999984
    vertex 225.91687041155268 179.8858283576697 5.576495251936116
  endloop
endfacet
facet normal -0.9914448613738182 3.1301485011397235e-16 0.13052619221999387
  outer loop
    vertex 226.10427836696266 179.8858283576699 7.000000000000022
    vertex 225.91687041155268 179.8858283576697 5.576495251936116
    vertex 226.10427836696266 134.48582835767016 6.999999999999984
  endloop
endfacet
facet normal -5.334702062460351e-15 -1.0 5.331180965634771e-14
  outer loop
    vertex 222.0277831150265 133.68582835767 1.6874079554101424
    vertex 222.20427836696265 133.68582835767 1.4999999999999636
    vertex 223.3542783669627 133.68582835767012 2.2368602791855765
  endloop
endfacet
facet normal -5.334702062460351e-15 -1.0 5.331180965634771e-14
  outer loop
    vertex 223.60427836696263 133.68582835767003 1.4999999999999842
    vertex 223.3542783669627 133.68582835767012 2.2368602791855765
    vertex 222.20427836696265 133.68582835767 1.4999999999999636
  endloop
endfacet
facet normal -5.334702062460351e-15 -1.0 5.331180965634771e-14
  outer loop
    vertex 223.60427836696263 133.6858283576701 2.428692026180339
    vertex 223.3542783669627 133.68582835767012 2.2368602791855765
    vertex 223.60427836696263 133.68582835767003 1.4999999999999842
  endloop
endfacet
facet normal -5.334702062460351e-15 -1.0 5.331180965634771e-14
  outer loop
    vertex 217.60427836696266 133.68582835767006 2.428692026180324
    vertex 217.60427836696266 133.68582835767003 1.4999999999999811
    vertex 217.85427836696255 133.6858283576702 2.2368602791855947
  endloop
endfacet
facet normal -5.334702062460351e-15 -1.0 5.331180965634771e-14
  outer loop
    vertex 219.00427836696255 133.68582835767006 1.4999999999999905
    vertex 217.85427836696255 133.6858283576702 2.2368602791855947
    vertex 217.60427836696266 133.68582835767003 1.4999999999999811
  endloop
endfacet
facet normal -5.334702062460351e-15 -1.0 5.331180965634771e-14
  outer loop
    vertex 219.1807736188987 133.68582835767 1.6874079554101347
    vertex 217.85427836696255 133.6858283576702 2.2368602791855947
    vertex 219.00427836696255 133.68582835767006 1.4999999999999905
  endloop
endfacet
facet normal -5.334702062460351e-15 -1.0 5.331180965634771e-14
  outer loop
    vertex 219.0042783669626 133.68582835767003 0.9999999999999866
    vertex 219.1807736188987 133.68582835767 1.6874079554101347
    vertex 219.00427836696255 133.68582835767006 1.4999999999999905
  endloop
endfacet
facet normal -5.334702062460351e-15 -1.0 5.331180965634771e-14
  outer loop
    vertex 222.20427836696265 133.68582835767 0.999999999999971
    vertex 219.1807736188987 133.68582835767 1.6874079554101347
    vertex 219.0042783669626 133.68582835767003 0.9999999999999866
  endloop
endfacet
facet normal -5.334702062460351e-15 -1.0 5.331180965634771e-14
  outer loop
    vertex 220.60427836696252 133.68582835767015 1.4999999999999996
    vertex 219.1807736188987 133.68582835767 1.6874079554101347
    vertex 222.20427836696265 133.68582835767 0.999999999999971
  endloop
endfacet
facet normal -5.334702062460351e-15 -1.0 5.331180965634771e-14
  outer loop
    vertex 222.0277831150265 133.68582835767 1.6874079554101424
    vertex 220.60427836696252 133.68582835767015 1.4999999999999996
    vertex 222.20427836696265 133.68582835767 0.999999999999971
  endloop
endfacet
facet normal -5.334702062460351e-15 -1.0 5.331180965634771e-14
  outer loop
    vertex 222.20427836696265 133.68582835767 1.4999999999999636
    vertex 222.0277831150265 133.68582835767 1.6874079554101424
    vertex 222.20427836696265 133.68582835767 0.999999999999971
  endloop
endfacet
facet normal -1.0 6.424078445253047e-15 -1.278800567932126e-15
  outer loop
    vertex 204.10427836696252 136.88582835767002 7.516660497455456e-15
    vertex 204.10427836696252 134.88582835767002 6.82810392640274e-15
    vertex 204.10427836696252 136.88582835767002 1.0000000000000075
  endloop
endfacet
facet normal -1.0 6.424078445253047e-15 -1.278800567932126e-15
  outer loop
    vertex 204.10427836696252 134.88582835767002 0.9999999999999926
    vertex 204.10427836696252 136.88582835767002 1.0000000000000075
    vertex 204.10427836696252 134.88582835767002 6.82810392640274e-15
  endloop
endfacet
facet normal -1.0 6.424078445253047e-15 -1.278800567932126e-15
  outer loop
    vertex 204.10427836696252 133.68582835767 0.9999999999999922
    vertex 204.10427836696252 136.88582835767002 1.0000000000000075
    vertex 204.10427836696252 134.88582835767002 0.9999999999999926
  endloop
endfacet
facet normal -1.0 6.424078445253047e-15 -1.278800567932126e-15
  outer loop
    vertex 204.1042783669628 182.88582835767005 1.7361032856253578e-14
    vertex 204.10427836696252 138.08582835767 7.894544859055242e-15
    vertex 204.1042783669628 182.8858283576699 12.500000000000107
  endloop
endfacet
facet normal -1.0 6.424078445253047e-15 -1.278800567932126e-15
  outer loop
    vertex 204.10427836696252 138.08582835767 1.0000000000000078
    vertex 204.1042783669628 182.8858283576699 12.500000000000107
    vertex 204.10427836696252 138.08582835767 7.894544859055242e-15
  endloop
endfacet
facet normal -1.0 6.424078445253047e-15 -1.278800567932126e-15
  outer loop
    vertex 204.10427836696252 136.88582835767002 1.0000000000000075
    vertex 204.1042783669628 182.8858283576699 12.500000000000107
    vertex 204.10427836696252 138.08582835767 1.0000000000000078
  endloop
endfacet
facet normal -1.0 6.424078445253047e-15 -1.278800567932126e-15
  outer loop
    vertex 204.10427836696252 133.68582835767 6.450219564802954e-15
    vertex 204.1042783669625 131.48582835766996 1.0222378499237481e-14
    vertex 204.10427836696252 133.68582835767 0.9999999999999922
  endloop
endfacet
facet normal -1.0 6.424078445253047e-15 -1.278800567932126e-15
  outer loop
    vertex 204.10427836696243 131.48582835767004 12.500000000000126
    vertex 204.10427836696252 133.68582835767 0.9999999999999922
    vertex 204.1042783669625 131.48582835766996 1.0222378499237481e-14
  endloop
endfacet
facet normal -1.0 6.424078445253047e-15 -1.278800567932126e-15
  outer loop
    vertex 204.10427836696252 136.88582835767002 1.0000000000000075
    vertex 204.10427836696252 133.68582835767 0.9999999999999922
    vertex 204.10427836696243 131.48582835767004 12.500000000000126
  endloop
endfacet
facet normal -1.0 6.424078445253047e-15 -1.278800567932126e-15
  outer loop
    vertex 204.1042783669628 182.8858283576699 12.500000000000107
    vertex 204.10427836696252 136.88582835767002 1.0000000000000075
    vertex 204.10427836696243 131.48582835767004 12.500000000000126
  endloop
endfacet
facet normal 0.9238795325112981 -1.2100547507311801e-15 0.3826834323650627
  outer loop
    vertex 205.84113864614818 134.4858283576701 4.249999999999929
    vertex 205.84113864614818 179.88582835766982 4.2500000000000036
    vertex 205.60427836696263 134.48582835767004 4.821831298397217
  endloop
endfacet
facet normal 0.9238795325112981 -1.2100547507311801e-15 0.3826834323650627
  outer loop
    vertex 205.60427836696263 179.88582835766977 4.82183129839729
    vertex 205.60427836696263 134.48582835767004 4.821831298397217
    vertex 205.84113864614818 179.88582835766982 4.2500000000000036
  endloop
endfacet
facet normal 1.0 -7.494994037485356e-14 -4.8189277639683845e-15
  outer loop
    vertex 209.0042783669625 133.68582835767006 1.1204737396203315e-14
    vertex 209.0042783669624 132.68582835767003 1.5000000000000135
    vertex 209.00427836696232 131.48582835766996 4.754517831401855e-15
  endloop
endfacet
facet normal 1.0 -7.494994037485356e-14 -4.8189277639683845e-15
  outer loop
    vertex 209.00427836696235 131.48582835766902 5.499999999999764
    vertex 209.00427836696232 131.48582835766996 4.754517831401855e-15
    vertex 209.0042783669624 132.68582835767003 1.5000000000000135
  endloop
endfacet
facet normal 1.0 -7.494994037485356e-14 -4.8189277639683845e-15
  outer loop
    vertex 209.0042783669625 133.68582835767006 0.9999999999999969
    vertex 209.0042783669624 132.68582835767003 1.5000000000000135
    vertex 209.0042783669625 133.68582835767006 1.1204737396203315e-14
  endloop
endfacet
facet normal 1.0 -7.494994037485356e-14 -4.8189277639683845e-15
  outer loop
    vertex 209.00427836696244 132.68582835766907 5.500000000000012
    vertex 209.00427836696235 131.48582835766902 5.499999999999764
    vertex 209.0042783669624 132.68582835767003 1.5000000000000135
  endloop
endfacet
facet normal 1.0 -7.494994037485356e-14 -4.8189277639683845e-15
  outer loop
    vertex 209.0042783669624 132.68582835767003 1.5000000000000135
    vertex 209.0042783669625 133.68582835767006 0.9999999999999969
    vertex 209.0042783669625 133.6858283576701 1.500000000000015
  endloop
endfacet
facet normal 3.334946148283335e-14 -1.0 -3.0610008641031425e-16
  outer loop
    vertex 205.10427836696257 179.88582835766982 7.00000000000001
    vertex 205.29168632237278 179.88582835766988 5.576495251936127
    vertex 205.1042783669626 179.8858283576698 12.500000000000075
  endloop
endfacet
facet normal 3.334946148283335e-14 -1.0 -3.0610008641031425e-16
  outer loop
    vertex 207.6042783669627 179.88582835766985 12.500000000000083
    vertex 205.1042783669626 179.8858283576698 12.500000000000075
    vertex 205.29168632237278 179.88582835766988 5.576495251936127
  endloop
endfacet
facet normal 3.334946148283335e-14 -1.0 -3.0610008641031425e-16
  outer loop
    vertex 205.60427836696263 179.88582835766977 4.82183129839729
    vertex 207.6042783669627 179.88582835766985 12.500000000000083
    vertex 205.29168632237278 179.88582835766988 5.576495251936127
  endloop
endfacet
facet normal 3.334946148283335e-14 -1.0 -3.0610008641031425e-16
  outer loop
    vertex 205.84113864614818 179.88582835766982 4.2500000000000036
    vertex 207.6042783669627 179.88582835766985 12.500000000000083
    vertex 205.60427836696263 179.88582835766977 4.82183129839729
  endloop
endfacet
facet normal 3.334946148283335e-14 -1.0 -3.0610008641031425e-16
  outer loop
    vertex 206.71519107043653 179.88582835766982 3.1109127034739883
    vertex 207.6042783669627 179.88582835766985 12.500000000000083
    vertex 205.84113864614818 179.88582835766982 4.2500000000000036
  endloop
endfacet
facet normal 3.334946148283335e-14 -1.0 -3.0610008641031425e-16
  outer loop
    vertex 207.60427836696263 179.88582835766994 2.428692026180372
    vertex 207.6042783669627 179.88582835766985 12.500000000000083
    vertex 206.71519107043653 179.88582835766982 3.1109127034739883
  endloop
endfacet
facet normal 1.0 1.7562340470789122e-14 -8.331704313903737e-15
  outer loop
    vertex 207.60427836696263 179.88582835766994 2.428692026180372
    vertex 207.60427836696257 180.68582835766992 2.428692026180418
    vertex 207.6042783669627 179.88582835766985 12.500000000000083
  endloop
endfacet
facet normal 1.0 1.7562340470789122e-14 -8.331704313903737e-15
  outer loop
    vertex 207.6042783669627 180.6858283576699 12.500000000000082
    vertex 207.6042783669627 179.88582835766985 12.500000000000083
    vertex 207.60427836696257 180.68582835766992 2.428692026180418
  endloop
endfacet
facet normal 1.0 -4.518191376589693e-14 -9.535242551952474e-15
  outer loop
    vertex 205.10427836696266 180.68582835766992 1.5000000000000213
    vertex 205.10427836696275 181.68582835766998 1.5000000000000295
    vertex 205.1042783669628 180.68582835766978 12.500000000000082
  endloop
endfacet
facet normal 1.0 -4.518191376589693e-14 -9.535242551952474e-15
  outer loop
    vertex 205.1042783669628 181.6858283576699 12.500000000000094
    vertex 205.1042783669628 180.68582835766978 12.500000000000082
    vertex 205.10427836696275 181.68582835766998 1.5000000000000295
  endloop
endfacet
facet normal -3.2128958522743465e-14 1.0 9.129092984744933e-15
  outer loop
    vertex 205.10427836696266 180.68582835766992 1.5000000000000213
    vertex 205.1042783669628 180.68582835766978 12.500000000000082
    vertex 207.60427836696257 180.68582835767 1.5000000000000242
  endloop
endfacet
facet normal -3.2128958522743465e-14 1.0 9.129092984744933e-15
  outer loop
    vertex 207.60427836696257 180.68582835766992 2.428692026180418
    vertex 207.60427836696257 180.68582835767 1.5000000000000242
    vertex 205.1042783669628 180.68582835766978 12.500000000000082
  endloop
endfacet
facet normal -3.2128958522743465e-14 1.0 9.129092984744933e-15
  outer loop
    vertex 207.6042783669627 180.6858283576699 12.500000000000082
    vertex 207.60427836696257 180.68582835766992 2.428692026180418
    vertex 205.1042783669628 180.68582835766978 12.500000000000082
  endloop
endfacet
facet normal -0.7933533402912426 2.1902635459357385e-15 0.6087614290087111
  outer loop
    vertex 214.49336566348867 180.68582835766998 3.110912703474032
    vertex 214.49336566348848 134.48582835767013 3.1109127034739905
    vertex 215.36741808777703 180.68582835767 4.250000000000052
  endloop
endfacet
facet normal -0.7933533402912426 2.1902635459357385e-15 0.6087614290087111
  outer loop
    vertex 215.36741808777688 134.48582835767016 4.249999999999999
    vertex 215.36741808777703 180.68582835767 4.250000000000052
    vertex 214.49336566348848 134.48582835767013 3.1109127034739905
  endloop
endfacet
facet normal -1.8276443160812382e-16 1.0 8.539805875431135e-15
  outer loop
    vertex 204.1042783669628 182.8858283576699 12.500000000000107
    vertex 227.10427836696275 182.88582835766994 12.500000000000098
    vertex 204.1042783669628 182.88582835767005 1.7361032856253578e-14
  endloop
endfacet
facet normal -1.8276443160812382e-16 1.0 8.539805875431135e-15
  outer loop
    vertex 227.10427836696275 182.88582835767002 -8.685706563116269e-15
    vertex 204.1042783669628 182.88582835767005 1.7361032856253578e-14
    vertex 227.10427836696275 182.88582835766994 12.500000000000098
  endloop
endfacet
facet normal -1.0 3.4821539163888804e-14 1.3920512053603055e-15
  outer loop
    vertex 212.20427836696257 133.68582835767 -4.336580353607244e-15
    vertex 212.20427836696248 131.48582835766996 -4.441875332675985e-15
    vertex 212.20427836696257 133.68582835767 0.9999999999999812
  endloop
endfacet
facet normal -1.0 3.4821539163888804e-14 1.3920512053603055e-15
  outer loop
    vertex 212.20427836696248 132.68582835767006 1.4999999999999867
    vertex 212.20427836696257 133.68582835767 0.9999999999999812
    vertex 212.20427836696248 131.48582835766996 -4.441875332675985e-15
  endloop
endfacet
facet normal -1.0 3.4821539163888804e-14 1.3920512053603055e-15
  outer loop
    vertex 212.20427836696248 131.48582835766902 5.499999999999755
    vertex 212.20427836696248 132.68582835767006 1.4999999999999867
    vertex 212.20427836696248 131.48582835766996 -4.441875332675985e-15
  endloop
endfacet
facet normal -1.0 3.4821539163888804e-14 1.3920512053603055e-15
  outer loop
    vertex 212.20427836696257 133.68582835767 1.499999999999988
    vertex 212.20427836696257 133.68582835767 0.9999999999999812
    vertex 212.20427836696248 132.68582835767006 1.4999999999999867
  endloop
endfacet
facet normal -1.0 3.4821539163888804e-14 1.3920512053603055e-15
  outer loop
    vertex 212.20427836696248 132.68582835766912 5.499999999999986
    vertex 212.20427836696248 132.68582835767006 1.4999999999999867
    vertex 212.20427836696248 131.48582835766902 5.499999999999755
  endloop
endfacet
facet normal 1.801744669149764e-15 3.4959669608582614e-15 1.0
  outer loop
    vertex 219.00427836696247 132.68582835767 1.499999999999989
    vertex 219.00427836696255 133.68582835767006 1.4999999999999905
    vertex 216.1042783669626 132.68582835767003 1.4999999999999951
  endloop
endfacet
facet normal 1.801744669149764e-15 3.4959669608582614e-15 1.0
  outer loop
    vertex 217.60427836696266 133.68582835767003 1.4999999999999811
    vertex 216.1042783669626 132.68582835767003 1.4999999999999951
    vertex 219.00427836696255 133.68582835767006 1.4999999999999905
  endloop
endfacet
facet normal 1.801744669149764e-15 3.4959669608582614e-15 1.0
  outer loop
    vertex 216.1042783669626 133.68582835767003 1.4999999999999942
    vertex 216.1042783669626 132.68582835767003 1.4999999999999951
    vertex 217.60427836696266 133.68582835767003 1.4999999999999811
  endloop
endfacet
facet normal -1.0 4.5181913765903146e-14 -7.191810209491415e-16
  outer loop
    vertex 226.10427836696275 180.68582835766998 1.4999999999999774
    vertex 226.10427836696272 180.68582835766992 12.500000000000064
    vertex 226.1042783669628 181.68582835766995 1.4999999999999845
  endloop
endfacet
facet normal -1.0 4.5181913765903146e-14 -7.191810209491415e-16
  outer loop
    vertex 226.10427836696275 181.6858283576699 12.500000000000066
    vertex 226.1042783669628 181.68582835766995 1.4999999999999845
    vertex 226.10427836696272 180.68582835766992 12.500000000000064
  endloop
endfacet
facet normal -0.9238795325112661 2.873671874812253e-15 0.3826834323651397
  outer loop
    vertex 215.36741808777703 180.68582835767 4.250000000000052
    vertex 215.36741808777688 134.48582835767016 4.249999999999999
    vertex 215.60427836696272 180.68582835767006 4.821831298397333
  endloop
endfacet
facet normal -0.9238795325112661 2.873671874812253e-15 0.3826834323651397
  outer loop
    vertex 215.6042783669625 134.48582835767002 4.82183129839731
    vertex 215.60427836696272 180.68582835767006 4.821831298397333
    vertex 215.36741808777688 134.48582835767016 4.249999999999999
  endloop
endfacet
facet normal 1.0 -2.2121604360950687e-15 -3.0626133634075837e-16
  outer loop
    vertex 205.10427836696257 179.88582835766982 7.00000000000001
    vertex 205.1042783669626 179.8858283576698 12.500000000000075
    vertex 205.10427836696252 134.4858283576701 7.000000000000053
  endloop
endfacet
facet normal 1.0 -2.2121604360950687e-15 -3.0626133634075837e-16
  outer loop
    vertex 205.1042783669625 134.48582835767007 12.500000000000105
    vertex 205.10427836696252 134.4858283576701 7.000000000000053
    vertex 205.1042783669626 179.8858283576698 12.500000000000075
  endloop
endfacet
facet normal -0.6087614290087373 1.752800310696472e-15 0.7933533402912225
  outer loop
    vertex 213.60427836696252 134.48582835767004 2.428692026180352
    vertex 214.49336566348848 134.48582835767013 3.1109127034739905
    vertex 213.60427836696272 180.68582835767006 2.4286920261803666
  endloop
endfacet
facet normal -0.6087614290087373 1.752800310696472e-15 0.7933533402912225
  outer loop
    vertex 214.49336566348867 180.68582835766998 3.110912703474032
    vertex 213.60427836696272 180.68582835767006 2.4286920261803666
    vertex 214.49336566348848 134.48582835767013 3.1109127034739905
  endloop
endfacet
facet normal 1.1108012389412997e-14 1.0 -1.6922886733873034e-15
  outer loop
    vertex 213.6042783669625 134.48582835767007 12.500000000000082
    vertex 217.60427836696257 134.48582835767004 12.500000000000087
    vertex 213.60427836696252 134.48582835767004 2.428692026180352
  endloop
endfacet
facet normal 1.1108012389412997e-14 1.0 -1.6922886733873034e-15
  outer loop
    vertex 214.49336566348848 134.48582835767013 3.1109127034739905
    vertex 213.60427836696252 134.48582835767004 2.428692026180352
    vertex 217.60427836696257 134.48582835767004 12.500000000000087
  endloop
endfacet
facet normal 1.1108012389412997e-14 1.0 -1.6922886733873034e-15
  outer loop
    vertex 215.36741808777688 134.48582835767016 4.249999999999999
    vertex 214.49336566348848 134.48582835767013 3.1109127034739905
    vertex 217.60427836696257 134.48582835767004 12.500000000000087
  endloop
endfacet
facet normal 1.1108012389412997e-14 1.0 -1.6922886733873034e-15
  outer loop
    vertex 215.6042783669625 134.48582835767002 4.82183129839731
    vertex 215.36741808777688 134.48582835767016 4.249999999999999
    vertex 217.60427836696257 134.48582835767004 12.500000000000087
  endloop
endfacet
facet normal 1.1108012389412997e-14 1.0 -1.6922886733873034e-15
  outer loop
    vertex 215.84113864614824 134.48582835767004 4.250000000000021
    vertex 215.6042783669625 134.48582835767002 4.82183129839731
    vertex 217.60427836696257 134.48582835767004 12.500000000000087
  endloop
endfacet
facet normal 1.1108012389412997e-14 1.0 -1.6922886733873034e-15
  outer loop
    vertex 216.7151910704365 134.48582835767007 3.110912703473999
    vertex 215.84113864614824 134.48582835767004 4.250000000000021
    vertex 217.60427836696257 134.48582835767004 12.500000000000087
  endloop
endfacet
facet normal 1.1108012389412997e-14 1.0 -1.6922886733873034e-15
  outer loop
    vertex 217.60427836696257 134.48582835767002 2.428692026180324
    vertex 216.7151910704365 134.48582835767007 3.110912703473999
    vertex 217.60427836696257 134.48582835767004 12.500000000000087
  endloop
endfacet
facet normal -4.1014894668857765e-14 1.0 1.6567986973493916e-14
  outer loop
    vertex 223.60427836696255 134.48582835767004 12.500000000000064
    vertex 226.10427836696263 134.4858283576701 12.500000000000048
    vertex 223.60427836696275 134.48582835767007 2.4286920261802787
  endloop
endfacet
facet normal -4.1014894668857765e-14 1.0 1.6567986973493916e-14
  outer loop
    vertex 224.4933656634888 134.48582835767039 3.1109127034738884
    vertex 223.60427836696275 134.48582835767007 2.4286920261802787
    vertex 226.10427836696263 134.4858283576701 12.500000000000048
  endloop
endfacet
facet normal -4.1014894668857765e-14 1.0 1.6567986973493916e-14
  outer loop
    vertex 225.3674180877771 134.48582835767027 4.2499999999999085
    vertex 224.4933656634888 134.48582835767039 3.1109127034738884
    vertex 226.10427836696263 134.4858283576701 12.500000000000048
  endloop
endfacet
facet normal -4.1014894668857765e-14 1.0 1.6567986973493916e-14
  outer loop
    vertex 225.6042783669627 134.4858283576702 4.821831298397194
    vertex 225.3674180877771 134.48582835767027 4.2499999999999085
    vertex 226.10427836696263 134.4858283576701 12.500000000000048
  endloop
endfacet
facet normal -4.1014894668857765e-14 1.0 1.6567986973493916e-14
  outer loop
    vertex 225.91687041155262 134.48582835767027 5.576495251936047
    vertex 225.6042783669627 134.4858283576702 4.821831298397194
    vertex 226.10427836696263 134.4858283576701 12.500000000000048
  endloop
endfacet
facet normal -4.1014894668857765e-14 1.0 1.6567986973493916e-14
  outer loop
    vertex 226.10427836696266 134.48582835767016 6.999999999999984
    vertex 225.91687041155262 134.48582835767027 5.576495251936047
    vertex 226.10427836696263 134.4858283576701 12.500000000000048
  endloop
endfacet
facet normal -3.7209953329299675e-14 -1.0 4.056945872190102e-15
  outer loop
    vertex 213.6042783669625 133.68582835767012 12.500000000000082
    vertex 213.60427836696252 133.68582835767012 2.4286920261803635
    vertex 215.1042783669626 133.68582835767003 12.500000000000057
  endloop
endfacet
facet normal -3.7209953329299675e-14 -1.0 4.056945872190102e-15
  outer loop
    vertex 213.60427836696252 133.68582835767006 1.5000000000000089
    vertex 215.1042783669626 133.68582835767003 12.500000000000057
    vertex 213.60427836696252 133.68582835767012 2.4286920261803635
  endloop
endfacet
facet normal -3.7209953329299675e-14 -1.0 4.056945872190102e-15
  outer loop
    vertex 215.1042783669626 133.68582835767006 1.4999999999999998
    vertex 215.1042783669626 133.68582835767003 12.500000000000057
    vertex 213.60427836696252 133.68582835767006 1.5000000000000089
  endloop
endfacet
facet normal 1.5424874002545817e-14 -1.0 9.035171515482406e-16
  outer loop
    vertex 216.1042783669626 133.68582835767 12.500000000000057
    vertex 216.1042783669626 133.68582835767003 1.4999999999999942
    vertex 217.60427836696266 133.68582835767006 12.500000000000076
  endloop
endfacet
facet normal 1.5424874002545817e-14 -1.0 9.035171515482406e-16
  outer loop
    vertex 217.60427836696266 133.68582835767006 2.428692026180324
    vertex 217.60427836696266 133.68582835767006 12.500000000000076
    vertex 216.1042783669626 133.68582835767003 1.4999999999999942
  endloop
endfacet
facet normal 1.5424874002545817e-14 -1.0 9.035171515482406e-16
  outer loop
    vertex 217.60427836696266 133.68582835767006 2.428692026180324
    vertex 216.1042783669626 133.68582835767003 1.4999999999999942
    vertex 217.60427836696266 133.68582835767003 1.4999999999999811
  endloop
endfacet
facet normal -0.6087614290087642 1.4995494844495541e-15 0.7933533402912019
  outer loop
    vertex 213.60427836696252 133.68582835767012 2.4286920261803635
    vertex 213.60427836696252 134.48582835767004 2.428692026180352
    vertex 213.35427836696257 133.68582835767015 2.2368602791856005
  endloop
endfacet
facet normal -0.6087614290087642 1.4995494844495541e-15 0.7933533402912019
  outer loop
    vertex 213.3542783669627 180.68582835767 2.236860279185583
    vertex 213.35427836696257 133.68582835767015 2.2368602791856005
    vertex 213.60427836696252 134.48582835767004 2.428692026180352
  endloop
endfacet
facet normal -0.6087614290087642 1.4995494844495541e-15 0.7933533402912019
  outer loop
    vertex 213.60427836696272 180.68582835767006 2.4286920261803666
    vertex 213.3542783669627 180.68582835767 2.236860279185583
    vertex 213.60427836696252 134.48582835767004 2.428692026180352
  endloop
endfacet
facet normal 1.0 -4.5181913765898804e-14 -4.408030765501216e-15
  outer loop
    vertex 205.10427836696238 132.68582835767006 1.4999999999999962
    vertex 205.10427836696243 133.68582835767012 1.4999999999999976
    vertex 205.10427836696243 132.68582835767006 12.50000000000009
  endloop
endfacet
facet normal 1.0 -4.5181913765898804e-14 -4.408030765501216e-15
  outer loop
    vertex 205.1042783669625 133.68582835767012 12.500000000000092
    vertex 205.10427836696243 132.68582835767006 12.50000000000009
    vertex 205.10427836696243 133.68582835767012 1.4999999999999976
  endloop
endfacet
facet normal -0.3826834323650748 -1.540424847330577e-16 0.923879532511293
  outer loop
    vertex 222.0277831150265 133.68582835767 1.6874079554101424
    vertex 223.3542783669627 133.68582835767012 2.2368602791855765
    vertex 222.02778311502664 180.68582835767 1.6874079554101888
  endloop
endfacet
facet normal -0.3826834323650748 -1.540424847330577e-16 0.923879532511293
  outer loop
    vertex 223.35427836696275 180.68582835766983 2.236860279185645
    vertex 222.02778311502664 180.68582835767 1.6874079554101888
    vertex 223.3542783669627 133.68582835767012 2.2368602791855765
  endloop
endfacet
facet normal -8.093336264202069e-15 1.0 1.299382859850149e-15
  outer loop
    vertex 223.60427836696263 180.68582835766998 1.5000000000000226
    vertex 223.60427836696277 180.68582835766983 2.428692026180427
    vertex 226.10427836696275 180.68582835766998 1.4999999999999774
  endloop
endfacet
facet normal -8.093336264202069e-15 1.0 1.299382859850149e-15
  outer loop
    vertex 226.10427836696272 180.68582835766992 12.500000000000064
    vertex 226.10427836696275 180.68582835766998 1.4999999999999774
    vertex 223.60427836696277 180.68582835766983 2.428692026180427
  endloop
endfacet
facet normal -8.093336264202069e-15 1.0 1.299382859850149e-15
  outer loop
    vertex 223.60427836696277 180.68582835766983 2.428692026180427
    vertex 223.60427836696263 180.68582835766995 12.500000000000071
    vertex 226.10427836696272 180.68582835766992 12.500000000000064
  endloop
endfacet
facet normal -6.686572069080946e-14 -1.0 1.3842483543024648e-14
  outer loop
    vertex 223.60427836696275 179.88582835766994 12.500000000000085
    vertex 223.60427836696277 179.88582835766996 2.428692026180341
    vertex 226.10427836696266 179.88582835766988 12.50000000000007
  endloop
endfacet
facet normal -6.686572069080946e-14 -1.0 1.3842483543024648e-14
  outer loop
    vertex 224.4933656634888 179.8858283576698 3.1109127034739563
    vertex 226.10427836696266 179.88582835766988 12.50000000000007
    vertex 223.60427836696277 179.88582835766996 2.428692026180341
  endloop
endfacet
facet normal -6.686572069080946e-14 -1.0 1.3842483543024648e-14
  outer loop
    vertex 225.36741808777714 179.8858283576697 4.249999999999978
    vertex 226.10427836696266 179.88582835766988 12.50000000000007
    vertex 224.4933656634888 179.8858283576698 3.1109127034739563
  endloop
endfacet
facet normal -6.686572069080946e-14 -1.0 1.3842483543024648e-14
  outer loop
    vertex 225.60427836696275 179.88582835766962 4.821831298397263
    vertex 226.10427836696266 179.88582835766988 12.50000000000007
    vertex 225.36741808777714 179.8858283576697 4.249999999999978
  endloop
endfacet
facet normal -6.686572069080946e-14 -1.0 1.3842483543024648e-14
  outer loop
    vertex 225.91687041155268 179.8858283576697 5.576495251936116
    vertex 226.10427836696266 179.88582835766988 12.50000000000007
    vertex 225.60427836696275 179.88582835766962 4.821831298397263
  endloop
endfacet
facet normal -6.686572069080946e-14 -1.0 1.3842483543024648e-14
  outer loop
    vertex 226.10427836696266 179.8858283576699 7.000000000000022
    vertex 226.10427836696266 179.88582835766988 12.50000000000007
    vertex 225.91687041155268 179.8858283576697 5.576495251936116
  endloop
endfacet
facet normal 1.0 1.8041540483793984e-13 -3.571703892118486e-15
  outer loop
    vertex 217.60427836696257 134.48582835767002 2.428692026180324
    vertex 217.60427836696257 134.48582835767004 12.500000000000087
    vertex 217.60427836696266 133.68582835767006 2.428692026180324
  endloop
endfacet
facet normal 1.0 1.8041540483793984e-13 -3.571703892118486e-15
  outer loop
    vertex 217.60427836696266 133.68582835767006 12.500000000000076
    vertex 217.60427836696266 133.68582835767006 2.428692026180324
    vertex 217.60427836696257 134.48582835767004 12.500000000000087
  endloop
endfacet
facet normal -4.382122785892444e-15 -5.286326118731014e-15 1.0
  outer loop
    vertex 212.20427836696248 132.68582835767006 1.4999999999999867
    vertex 215.1042783669626 132.68582835767006 1.5000000000000007
    vertex 212.20427836696257 133.68582835767 1.499999999999988
  endloop
endfacet
facet normal -4.382122785892444e-15 -5.286326118731014e-15 1.0
  outer loop
    vertex 215.1042783669626 133.68582835767006 1.4999999999999998
    vertex 212.20427836696257 133.68582835767 1.499999999999988
    vertex 215.1042783669626 132.68582835767006 1.5000000000000007
  endloop
endfacet
facet normal -4.382122785892444e-15 -5.286326118731014e-15 1.0
  outer loop
    vertex 213.60427836696252 133.68582835767006 1.5000000000000089
    vertex 212.20427836696257 133.68582835767 1.499999999999988
    vertex 215.1042783669626 133.68582835767006 1.4999999999999998
  endloop
endfacet
facet normal -1.5474190720386276e-14 -1.0 1.60121756189776e-15
  outer loop
    vertex 205.1042783669625 133.68582835767012 12.500000000000092
    vertex 207.60427836696255 133.6858283576701 2.428692026180349
    vertex 207.60427836696257 133.6858283576701 12.500000000000101
  endloop
endfacet
facet normal -1.5474190720386276e-14 -1.0 1.60121756189776e-15
  outer loop
    vertex 205.10427836696243 133.68582835767012 1.4999999999999976
    vertex 207.60427836696255 133.68582835767006 1.5000000000000056
    vertex 205.1042783669625 133.68582835767012 12.500000000000092
  endloop
endfacet
facet normal -1.5474190720386276e-14 -1.0 1.60121756189776e-15
  outer loop
    vertex 207.60427836696255 133.6858283576701 2.428692026180349
    vertex 205.1042783669625 133.68582835767012 12.500000000000092
    vertex 207.60427836696255 133.68582835767006 1.5000000000000056
  endloop
endfacet
facet normal 3.5922718590004255e-16 -1.0 5.7342612265206895e-15
  outer loop
    vertex 204.1042783669625 131.48582835766996 1.0222378499237481e-14
    vertex 209.00427836696235 131.48582835766902 5.499999999999764
    vertex 204.10427836696243 131.48582835767004 12.500000000000126
  endloop
endfacet
facet normal 3.5922718590004255e-16 -1.0 5.7342612265206895e-15
  outer loop
    vertex 227.10427836696266 131.48582835767004 12.500000000000062
    vertex 204.10427836696243 131.48582835767004 12.500000000000126
    vertex 209.00427836696235 131.48582835766902 5.499999999999764
  endloop
endfacet
facet normal 3.5922718590004255e-16 -1.0 5.7342612265206895e-15
  outer loop
    vertex 209.00427836696232 131.48582835766996 4.754517831401855e-15
    vertex 209.00427836696235 131.48582835766902 5.499999999999764
    vertex 204.1042783669625 131.48582835766996 1.0222378499237481e-14
  endloop
endfacet
facet normal 3.5922718590004255e-16 -1.0 5.7342612265206895e-15
  outer loop
    vertex 212.20427836696248 131.48582835766902 5.499999999999755
    vertex 227.10427836696266 131.48582835767004 12.500000000000062
    vertex 209.00427836696235 131.48582835766902 5.499999999999764
  endloop
endfacet
facet normal 3.5922718590004255e-16 -1.0 5.7342612265206895e-15
  outer loop
    vertex 219.00427836696247 131.48582835766902 5.499999999999747
    vertex 227.10427836696266 131.48582835767004 12.500000000000062
    vertex 212.20427836696248 131.48582835766902 5.499999999999755
  endloop
endfacet
facet normal 3.5922718590004255e-16 -1.0 5.7342612265206895e-15
  outer loop
    vertex 222.20427836696246 131.48582835766902 5.499999999999733
    vertex 227.10427836696266 131.48582835767004 12.500000000000062
    vertex 219.00427836696247 131.48582835766902 5.499999999999747
  endloop
endfacet
facet normal 3.5922718590004255e-16 -1.0 5.7342612265206895e-15
  outer loop
    vertex 222.20427836696246 131.48582835766996 -3.080125725076881e-14
    vertex 227.10427836696266 131.48582835767004 12.500000000000062
    vertex 222.20427836696246 131.48582835766902 5.499999999999733
  endloop
endfacet
facet normal 3.5922718590004255e-16 -1.0 5.7342612265206895e-15
  outer loop
    vertex 227.1042783669626 131.48582835766996 -3.732660534956032e-14
    vertex 227.10427836696266 131.48582835767004 12.500000000000062
    vertex 222.20427836696246 131.48582835766996 -3.080125725076881e-14
  endloop
endfacet
facet normal 3.5922718590004255e-16 -1.0 5.7342612265206895e-15
  outer loop
    vertex 212.20427836696248 131.48582835766996 -4.441875332675985e-15
    vertex 219.00427836696247 131.48582835766996 -1.7286790410289717e-14
    vertex 212.20427836696248 131.48582835766902 5.499999999999755
  endloop
endfacet
facet normal 3.5922718590004255e-16 -1.0 5.7342612265206895e-15
  outer loop
    vertex 219.00427836696247 131.48582835766902 5.499999999999747
    vertex 212.20427836696248 131.48582835766902 5.499999999999755
    vertex 219.00427836696247 131.48582835766996 -1.7286790410289717e-14
  endloop
endfacet
facet normal -1.0 1.1342315975326775e-14 1.3317036936308964e-15
  outer loop
    vertex 215.1042783669626 133.68582835767006 1.4999999999999998
    vertex 215.1042783669626 132.68582835767006 1.5000000000000007
    vertex 215.1042783669626 133.68582835767003 12.500000000000057
  endloop
endfacet
facet normal -1.0 1.1342315975326775e-14 1.3317036936308964e-15
  outer loop
    vertex 215.1042783669626 132.68582835767003 12.500000000000059
    vertex 215.1042783669626 133.68582835767003 12.500000000000057
    vertex 215.1042783669626 132.68582835767006 1.5000000000000007
  endloop
endfacet
facet normal 0.923879532511219 -2.6899303281301325e-15 0.3826834323652534
  outer loop
    vertex 215.84113864614832 180.68582835766995 4.250000000000028
    vertex 215.60427836696272 180.68582835767006 4.821831298397333
    vertex 215.84113864614824 134.48582835767004 4.250000000000021
  endloop
endfacet
facet normal 0.923879532511219 -2.6899303281301325e-15 0.3826834323652534
  outer loop
    vertex 215.6042783669625 134.48582835767002 4.82183129839731
    vertex 215.84113864614824 134.48582835767004 4.250000000000021
    vertex 215.60427836696272 180.68582835767006 4.821831298397333
  endloop
endfacet
facet normal -1.0 7.235592372350647e-14 -8.054505429508634e-15
  outer loop
    vertex 223.60427836696275 134.48582835767007 2.4286920261802787
    vertex 223.60427836696263 133.6858283576701 2.428692026180339
    vertex 223.60427836696255 134.48582835767004 12.500000000000064
  endloop
endfacet
facet normal -1.0 7.235592372350647e-14 -8.054505429508634e-15
  outer loop
    vertex 223.6042783669626 133.68582835767012 12.500000000000057
    vertex 223.60427836696255 134.48582835767004 12.500000000000064
    vertex 223.60427836696263 133.6858283576701 2.428692026180339
  endloop
endfacet
facet normal 1.2043192123681495e-14 1.0 1.6382079922512945e-14
  outer loop
    vertex 210.60427836696263 180.68582835767 1.500000000000023
    vertex 212.02778311502655 180.68582835767023 1.6874079554101287
    vertex 220.60427836696275 180.6858283576699 1.5000000000000575
  endloop
endfacet
facet normal 1.2043192123681495e-14 1.0 1.6382079922512945e-14
  outer loop
    vertex 213.3542783669627 180.68582835767 2.236860279185583
    vertex 220.60427836696275 180.6858283576699 1.5000000000000575
    vertex 212.02778311502655 180.68582835767023 1.6874079554101287
  endloop
endfacet
facet normal 1.2043192123681495e-14 1.0 1.6382079922512945e-14
  outer loop
    vertex 219.18077361889888 180.68582835767012 1.6874079554101271
    vertex 220.60427836696275 180.6858283576699 1.5000000000000575
    vertex 213.3542783669627 180.68582835767 2.236860279185583
  endloop
endfacet
facet normal 1.2043192123681495e-14 1.0 1.6382079922512945e-14
  outer loop
    vertex 213.60427836696272 180.68582835767006 2.4286920261803666
    vertex 219.18077361889888 180.68582835767012 1.6874079554101271
    vertex 213.3542783669627 180.68582835767 2.236860279185583
  endloop
endfacet
facet normal 1.2043192123681495e-14 1.0 1.6382079922512945e-14
  outer loop
    vertex 214.49336566348867 180.68582835766998 3.110912703474032
    vertex 219.18077361889888 180.68582835767012 1.6874079554101271
    vertex 213.60427836696272 180.68582835767006 2.4286920261803666
  endloop
endfacet
facet normal 1.2043192123681495e-14 1.0 1.6382079922512945e-14
  outer loop
    vertex 217.8542783669626 180.68582835766998 2.23686027918557
    vertex 219.18077361889888 180.68582835767012 1.6874079554101271
    vertex 214.49336566348867 180.68582835766998 3.110912703474032
  endloop
endfacet
facet normal 1.2043192123681495e-14 1.0 1.6382079922512945e-14
  outer loop
    vertex 216.7151910704367 180.68582835766995 3.110912703474012
    vertex 217.8542783669626 180.68582835766998 2.23686027918557
    vertex 214.49336566348867 180.68582835766998 3.110912703474032
  endloop
endfacet
facet normal 1.2043192123681495e-14 1.0 1.6382079922512945e-14
  outer loop
    vertex 215.36741808777703 180.68582835767 4.250000000000052
    vertex 216.7151910704367 180.68582835766995 3.110912703474012
    vertex 214.49336566348867 180.68582835766998 3.110912703474032
  endloop
endfacet
facet normal 1.2043192123681495e-14 1.0 1.6382079922512945e-14
  outer loop
    vertex 215.84113864614832 180.68582835766995 4.250000000000028
    vertex 216.7151910704367 180.68582835766995 3.110912703474012
    vertex 215.36741808777703 180.68582835767 4.250000000000052
  endloop
endfacet
facet normal 1.2043192123681495e-14 1.0 1.6382079922512945e-14
  outer loop
    vertex 215.60427836696272 180.68582835767006 4.821831298397333
    vertex 215.84113864614832 180.68582835766995 4.250000000000028
    vertex 215.36741808777703 180.68582835767 4.250000000000052
  endloop
endfacet
facet normal 1.2043192123681495e-14 1.0 1.6382079922512945e-14
  outer loop
    vertex 217.60427836696266 180.68582835767 2.428692026180381
    vertex 217.8542783669626 180.68582835766998 2.23686027918557
    vertex 216.7151910704367 180.68582835766995 3.110912703474012
  endloop
endfacet
facet normal -1.0 1.1342315975327746e-14 -3.708296752965641e-15
  outer loop
    vertex 213.60427836696252 134.48582835767004 2.428692026180352
    vertex 213.60427836696252 133.68582835767012 2.4286920261803635
    vertex 213.6042783669625 134.48582835767007 12.500000000000082
  endloop
endfacet
facet normal -1.0 1.1342315975327746e-14 -3.708296752965641e-15
  outer loop
    vertex 213.6042783669625 133.68582835767012 12.500000000000082
    vertex 213.6042783669625 134.48582835767007 12.500000000000082
    vertex 213.60427836696252 133.68582835767012 2.4286920261803635
  endloop
endfacet
facet normal -5.358207688029393e-15 -1.0 4.081810451236386e-14
  outer loop
    vertex 212.02778311502638 133.68582835767006 1.6874079554101666
    vertex 212.20427836696257 133.68582835767 1.499999999999988
    vertex 213.35427836696257 133.68582835767015 2.2368602791856005
  endloop
endfacet
facet normal -5.358207688029393e-15 -1.0 4.081810451236386e-14
  outer loop
    vertex 213.60427836696252 133.68582835767006 1.5000000000000089
    vertex 213.35427836696257 133.68582835767015 2.2368602791856005
    vertex 212.20427836696257 133.68582835767 1.499999999999988
  endloop
endfacet
facet normal -5.358207688029393e-15 -1.0 4.081810451236386e-14
  outer loop
    vertex 213.60427836696252 133.68582835767012 2.4286920261803635
    vertex 213.35427836696257 133.68582835767015 2.2368602791856005
    vertex 213.60427836696252 133.68582835767006 1.5000000000000089
  endloop
endfacet
facet normal -5.358207688029393e-15 -1.0 4.081810451236386e-14
  outer loop
    vertex 207.60427836696255 133.6858283576701 2.428692026180349
    vertex 207.60427836696255 133.68582835767006 1.5000000000000056
    vertex 207.85427836696243 133.68582835767023 2.236860279185619
  endloop
endfacet
facet normal -5.358207688029393e-15 -1.0 4.081810451236386e-14
  outer loop
    vertex 209.0042783669625 133.6858283576701 1.500000000000015
    vertex 207.85427836696243 133.68582835767023 2.236860279185619
    vertex 207.60427836696255 133.68582835767006 1.5000000000000056
  endloop
endfacet
facet normal -5.358207688029393e-15 -1.0 4.081810451236386e-14
  outer loop
    vertex 209.1807736188986 133.68582835767003 1.6874079554101593
    vertex 207.85427836696243 133.68582835767023 2.236860279185619
    vertex 209.0042783669625 133.6858283576701 1.500000000000015
  endloop
endfacet
facet normal -5.358207688029393e-15 -1.0 4.081810451236386e-14
  outer loop
    vertex 209.0042783669625 133.68582835767006 0.9999999999999969
    vertex 209.1807736188986 133.68582835767003 1.6874079554101593
    vertex 209.0042783669625 133.6858283576701 1.500000000000015
  endloop
endfacet
facet normal -5.358207688029393e-15 -1.0 4.081810451236386e-14
  outer loop
    vertex 212.20427836696257 133.68582835767 0.9999999999999812
    vertex 209.1807736188986 133.68582835767003 1.6874079554101593
    vertex 209.0042783669625 133.68582835767006 0.9999999999999969
  endloop
endfacet
facet normal -5.358207688029393e-15 -1.0 4.081810451236386e-14
  outer loop
    vertex 210.60427836696243 133.68582835767018 1.500000000000024
    vertex 209.1807736188986 133.68582835767003 1.6874079554101593
    vertex 212.20427836696257 133.68582835767 0.9999999999999812
  endloop
endfacet
facet normal -5.358207688029393e-15 -1.0 4.081810451236386e-14
  outer loop
    vertex 212.02778311502638 133.68582835767006 1.6874079554101666
    vertex 210.60427836696243 133.68582835767018 1.500000000000024
    vertex 212.20427836696257 133.68582835767 0.9999999999999812
  endloop
endfacet
facet normal -5.358207688029393e-15 -1.0 4.081810451236386e-14
  outer loop
    vertex 212.20427836696257 133.68582835767 1.499999999999988
    vertex 212.02778311502638 133.68582835767006 1.6874079554101666
    vertex 212.20427836696257 133.68582835767 0.9999999999999812
  endloop
endfacet
facet normal 0.6087614290087598 -1.634313139637894e-15 0.7933533402912051
  outer loop
    vertex 217.60427836696266 133.68582835767006 2.428692026180324
    vertex 217.85427836696255 133.6858283576702 2.2368602791855947
    vertex 217.60427836696257 134.48582835767002 2.428692026180324
  endloop
endfacet
facet normal 0.6087614290087598 -1.634313139637894e-15 0.7933533402912051
  outer loop
    vertex 217.8542783669626 180.68582835766998 2.23686027918557
    vertex 217.60427836696257 134.48582835767002 2.428692026180324
    vertex 217.85427836696255 133.6858283576702 2.2368602791855947
  endloop
endfacet
facet normal 0.6087614290087598 -1.634313139637894e-15 0.7933533402912051
  outer loop
    vertex 217.60427836696266 180.68582835767 2.428692026180381
    vertex 217.60427836696257 134.48582835767002 2.428692026180324
    vertex 217.8542783669626 180.68582835766998 2.23686027918557
  endloop
endfacet
facet normal 0.6087614290086811 -2.080724795930527e-15 0.7933533402912655
  outer loop
    vertex 206.71519107043653 134.4858283576701 3.1109127034739137
    vertex 207.60427836696257 134.48582835767013 2.4286920261802583
    vertex 206.71519107043653 179.88582835766982 3.1109127034739883
  endloop
endfacet
facet normal 0.6087614290086811 -2.080724795930527e-15 0.7933533402912655
  outer loop
    vertex 207.60427836696263 179.88582835766994 2.428692026180372
    vertex 206.71519107043653 179.88582835766982 3.1109127034739883
    vertex 207.60427836696257 134.48582835767013 2.4286920261802583
  endloop
endfacet
facet normal 1.0 -1.1342315975326779e-14 -1.3317036936308964e-15
  outer loop
    vertex 216.1042783669626 133.68582835767003 1.4999999999999942
    vertex 216.1042783669626 133.68582835767 12.500000000000057
    vertex 216.1042783669626 132.68582835767003 1.4999999999999951
  endloop
endfacet
facet normal 1.0 -1.1342315975326779e-14 -1.3317036936308964e-15
  outer loop
    vertex 216.1042783669626 132.68582835767 12.500000000000057
    vertex 216.1042783669626 132.68582835767003 1.4999999999999951
    vertex 216.1042783669626 133.68582835767 12.500000000000057
  endloop
endfacet
facet normal 0.9238795325113134 -1.2710226133419063e-15 0.3826834323650255
  outer loop
    vertex 205.60427836696263 134.48582835767004 4.821831298397217
    vertex 205.60427836696263 179.88582835766977 4.82183129839729
    vertex 205.29168632237278 134.48582835767016 5.57649525193605
  endloop
endfacet
facet normal 0.9238795325113134 -1.2710226133419063e-15 0.3826834323650255
  outer loop
    vertex 205.29168632237278 179.88582835766988 5.576495251936127
    vertex 205.29168632237278 134.48582835767016 5.57649525193605
    vertex 205.60427836696263 179.88582835766977 4.82183129839729
  endloop
endfacet
facet normal 0.7933533402912495 -1.603682313993466e-15 0.6087614290087022
  outer loop
    vertex 206.71519107043653 134.4858283576701 3.1109127034739137
    vertex 206.71519107043653 179.88582835766982 3.1109127034739883
    vertex 205.84113864614818 134.4858283576701 4.249999999999929
  endloop
endfacet
facet normal 0.7933533402912495 -1.603682313993466e-15 0.6087614290087022
  outer loop
    vertex 205.84113864614818 179.88582835766982 4.2500000000000036
    vertex 205.84113864614818 134.4858283576701 4.249999999999929
    vertex 206.71519107043653 179.88582835766982 3.1109127034739883
  endloop
endfacet
facet normal -4.377150264766006e-15 -4.432664433549539e-16 1.0
  outer loop
    vertex 205.10427836696238 132.68582835767006 1.4999999999999962
    vertex 207.60427836696255 133.68582835767006 1.5000000000000056
    vertex 205.10427836696243 133.68582835767012 1.4999999999999976
  endloop
endfacet
facet normal -4.377150264766006e-15 -4.432664433549539e-16 1.0
  outer loop
    vertex 209.0042783669624 132.68582835767003 1.5000000000000135
    vertex 209.0042783669625 133.6858283576701 1.500000000000015
    vertex 205.10427836696238 132.68582835767006 1.4999999999999962
  endloop
endfacet
facet normal -4.377150264766006e-15 -4.432664433549539e-16 1.0
  outer loop
    vertex 207.60427836696255 133.68582835767006 1.5000000000000056
    vertex 205.10427836696238 132.68582835767006 1.4999999999999962
    vertex 209.0042783669625 133.6858283576701 1.500000000000015
  endloop
endfacet
facet normal 0.13052619222005932 -5.043743627593171e-16 0.9914448613738094
  outer loop
    vertex 209.1807736188986 133.68582835767003 1.6874079554101593
    vertex 210.60427836696243 133.68582835767018 1.500000000000024
    vertex 209.18077361889874 180.68582835767 1.6874079554101635
  endloop
endfacet
facet normal 0.13052619222005932 -5.043743627593171e-16 0.9914448613738094
  outer loop
    vertex 210.60427836696263 180.68582835767 1.500000000000023
    vertex 209.18077361889874 180.68582835767 1.6874079554101635
    vertex 210.60427836696243 133.68582835767018 1.500000000000024
  endloop
endfacet
facet normal 1.4107966813461631e-15 -7.909298771528421e-17 1.0
  outer loop
    vertex 223.6042783669626 133.68582835767012 12.500000000000057
    vertex 226.10427836696243 133.6858283576702 12.500000000000055
    vertex 223.60427836696255 134.48582835767004 12.500000000000064
  endloop
endfacet
facet normal 1.4107966813461631e-15 -7.909298771528421e-17 1.0
  outer loop
    vertex 223.60427836696275 179.88582835766994 12.500000000000085
    vertex 226.10427836696272 180.68582835766992 12.500000000000064
    vertex 223.60427836696263 180.68582835766995 12.500000000000071
  endloop
endfacet
facet normal 1.4107966813461631e-15 -7.909298771528421e-17 1.0
  outer loop
    vertex 227.10427836696266 131.48582835767004 12.500000000000062
    vertex 205.10427836696243 132.68582835767006 12.50000000000009
    vertex 204.10427836696243 131.48582835767004 12.500000000000126
  endloop
endfacet
facet normal 1.4107966813461631e-15 -7.909298771528421e-17 1.0
  outer loop
    vertex 204.1042783669628 182.8858283576699 12.500000000000107
    vertex 204.10427836696243 131.48582835767004 12.500000000000126
    vertex 205.10427836696243 132.68582835767006 12.50000000000009
  endloop
endfacet
facet normal 1.4107966813461631e-15 -7.909298771528421e-17 1.0
  outer loop
    vertex 216.1042783669626 132.68582835767 12.500000000000057
    vertex 205.10427836696243 132.68582835767006 12.50000000000009
    vertex 227.10427836696266 131.48582835767004 12.500000000000062
  endloop
endfacet
facet normal 1.4107966813461631e-15 -7.909298771528421e-17 1.0
  outer loop
    vertex 215.1042783669626 132.68582835767003 12.500000000000059
    vertex 205.10427836696243 132.68582835767006 12.50000000000009
    vertex 216.1042783669626 132.68582835767 12.500000000000057
  endloop
endfacet
facet normal 1.4107966813461631e-15 -7.909298771528421e-17 1.0
  outer loop
    vertex 205.1042783669625 133.68582835767012 12.500000000000092
    vertex 204.1042783669628 182.8858283576699 12.500000000000107
    vertex 205.10427836696243 132.68582835767006 12.50000000000009
  endloop
endfacet
facet normal 1.4107966813461631e-15 -7.909298771528421e-17 1.0
  outer loop
    vertex 205.1042783669625 134.48582835767007 12.500000000000105
    vertex 204.1042783669628 182.8858283576699 12.500000000000107
    vertex 205.1042783669625 133.68582835767012 12.500000000000092
  endloop
endfacet
facet normal 1.4107966813461631e-15 -7.909298771528421e-17 1.0
  outer loop
    vertex 205.1042783669626 179.8858283576698 12.500000000000075
    vertex 204.1042783669628 182.8858283576699 12.500000000000107
    vertex 205.1042783669625 134.48582835767007 12.500000000000105
  endloop
endfacet
facet normal 1.4107966813461631e-15 -7.909298771528421e-17 1.0
  outer loop
    vertex 205.1042783669628 180.68582835766978 12.500000000000082
    vertex 204.1042783669628 182.8858283576699 12.500000000000107
    vertex 205.1042783669626 179.8858283576698 12.500000000000075
  endloop
endfacet
facet normal 1.4107966813461631e-15 -7.909298771528421e-17 1.0
  outer loop
    vertex 207.6042783669627 179.88582835766985 12.500000000000083
    vertex 205.1042783669628 180.68582835766978 12.500000000000082
    vertex 205.1042783669626 179.8858283576698 12.500000000000075
  endloop
endfacet
facet normal 1.4107966813461631e-15 -7.909298771528421e-17 1.0
  outer loop
    vertex 205.1042783669628 181.6858283576699 12.500000000000094
    vertex 204.1042783669628 182.8858283576699 12.500000000000107
    vertex 205.1042783669628 180.68582835766978 12.500000000000082
  endloop
endfacet
facet normal 1.4107966813461631e-15 -7.909298771528421e-17 1.0
  outer loop
    vertex 226.10427836696275 181.6858283576699 12.500000000000066
    vertex 204.1042783669628 182.8858283576699 12.500000000000107
    vertex 205.1042783669628 181.6858283576699 12.500000000000094
  endloop
endfacet
facet normal 1.4107966813461631e-15 -7.909298771528421e-17 1.0
  outer loop
    vertex 227.10427836696275 182.88582835766994 12.500000000000098
    vertex 226.10427836696243 132.68582835767006 12.500000000000064
    vertex 227.10427836696266 131.48582835767004 12.500000000000062
  endloop
endfacet
facet normal 1.4107966813461631e-15 -7.909298771528421e-17 1.0
  outer loop
    vertex 216.1042783669626 132.68582835767 12.500000000000057
    vertex 227.10427836696266 131.48582835767004 12.500000000000062
    vertex 226.10427836696243 132.68582835767006 12.500000000000064
  endloop
endfacet
facet normal 1.4107966813461631e-15 -7.909298771528421e-17 1.0
  outer loop
    vertex 226.10427836696243 133.6858283576702 12.500000000000055
    vertex 226.10427836696243 132.68582835767006 12.500000000000064
    vertex 227.10427836696275 182.88582835766994 12.500000000000098
  endloop
endfacet
facet normal 1.4107966813461631e-15 -7.909298771528421e-17 1.0
  outer loop
    vertex 226.10427836696263 134.4858283576701 12.500000000000048
    vertex 226.10427836696243 133.6858283576702 12.500000000000055
    vertex 227.10427836696275 182.88582835766994 12.500000000000098
  endloop
endfacet
facet normal 1.4107966813461631e-15 -7.909298771528421e-17 1.0
  outer loop
    vertex 223.60427836696255 134.48582835767004 12.500000000000064
    vertex 226.10427836696243 133.6858283576702 12.500000000000055
    vertex 226.10427836696263 134.4858283576701 12.500000000000048
  endloop
endfacet
facet normal 1.4107966813461631e-15 -7.909298771528421e-17 1.0
  outer loop
    vertex 226.10427836696266 179.88582835766988 12.50000000000007
    vertex 226.10427836696263 134.4858283576701 12.500000000000048
    vertex 227.10427836696275 182.88582835766994 12.500000000000098
  endloop
endfacet
facet normal 1.4107966813461631e-15 -7.909298771528421e-17 1.0
  outer loop
    vertex 226.10427836696272 180.68582835766992 12.500000000000064
    vertex 226.10427836696266 179.88582835766988 12.50000000000007
    vertex 227.10427836696275 182.88582835766994 12.500000000000098
  endloop
endfacet
facet normal 1.4107966813461631e-15 -7.909298771528421e-17 1.0
  outer loop
    vertex 223.60427836696275 179.88582835766994 12.500000000000085
    vertex 226.10427836696266 179.88582835766988 12.50000000000007
    vertex 226.10427836696272 180.68582835766992 12.500000000000064
  endloop
endfacet
facet normal 1.4107966813461631e-15 -7.909298771528421e-17 1.0
  outer loop
    vertex 226.10427836696275 181.6858283576699 12.500000000000066
    vertex 226.10427836696272 180.68582835766992 12.500000000000064
    vertex 227.10427836696275 182.88582835766994 12.500000000000098
  endloop
endfacet
facet normal 1.4107966813461631e-15 -7.909298771528421e-17 1.0
  outer loop
    vertex 204.1042783669628 182.8858283576699 12.500000000000107
    vertex 226.10427836696275 181.6858283576699 12.500000000000066
    vertex 227.10427836696275 182.88582835766994 12.500000000000098
  endloop
endfacet
facet normal 1.4107966813461631e-15 -7.909298771528421e-17 1.0
  outer loop
    vertex 205.1042783669628 180.68582835766978 12.500000000000082
    vertex 207.6042783669627 179.88582835766985 12.500000000000083
    vertex 207.6042783669627 180.6858283576699 12.500000000000082
  endloop
endfacet
facet normal 1.4107966813461631e-15 -7.909298771528421e-17 1.0
  outer loop
    vertex 207.60427836696257 133.6858283576701 12.500000000000101
    vertex 207.60427836696246 134.48582835767007 12.500000000000114
    vertex 205.1042783669625 133.68582835767012 12.500000000000092
  endloop
endfacet
facet normal 1.4107966813461631e-15 -7.909298771528421e-17 1.0
  outer loop
    vertex 205.1042783669625 134.48582835767007 12.500000000000105
    vertex 205.1042783669625 133.68582835767012 12.500000000000092
    vertex 207.60427836696246 134.48582835767007 12.500000000000114
  endloop
endfacet
facet normal 1.4107966813461631e-15 -7.909298771528421e-17 1.0
  outer loop
    vertex 216.1042783669626 132.68582835767 12.500000000000057
    vertex 216.1042783669626 133.68582835767 12.500000000000057
    vertex 215.1042783669626 132.68582835767003 12.500000000000059
  endloop
endfacet
facet normal 1.4107966813461631e-15 -7.909298771528421e-17 1.0
  outer loop
    vertex 215.1042783669626 133.68582835767003 12.500000000000057
    vertex 215.1042783669626 132.68582835767003 12.500000000000059
    vertex 216.1042783669626 133.68582835767 12.500000000000057
  endloop
endfacet
facet normal 1.4107966813461631e-15 -7.909298771528421e-17 1.0
  outer loop
    vertex 217.60427836696266 133.68582835767006 12.500000000000076
    vertex 215.1042783669626 133.68582835767003 12.500000000000057
    vertex 216.1042783669626 133.68582835767 12.500000000000057
  endloop
endfacet
facet normal 1.4107966813461631e-15 -7.909298771528421e-17 1.0
  outer loop
    vertex 213.6042783669625 133.68582835767012 12.500000000000082
    vertex 215.1042783669626 133.68582835767003 12.500000000000057
    vertex 217.60427836696266 133.68582835767006 12.500000000000076
  endloop
endfacet
facet normal 1.4107966813461631e-15 -7.909298771528421e-17 1.0
  outer loop
    vertex 217.60427836696257 134.48582835767004 12.500000000000087
    vertex 213.6042783669625 133.68582835767012 12.500000000000082
    vertex 217.60427836696266 133.68582835767006 12.500000000000076
  endloop
endfacet
facet normal 1.4107966813461631e-15 -7.909298771528421e-17 1.0
  outer loop
    vertex 213.6042783669625 134.48582835767007 12.500000000000082
    vertex 213.6042783669625 133.68582835767012 12.500000000000082
    vertex 217.60427836696257 134.48582835767004 12.500000000000087
  endloop
endfacet
facet normal -1.0 1.7683410698055754e-15 1.3317036936308613e-15
  outer loop
    vertex 226.10427836696266 179.8858283576699 7.000000000000022
    vertex 226.10427836696266 134.48582835767016 6.999999999999984
    vertex 226.10427836696266 179.88582835766988 12.50000000000007
  endloop
endfacet
facet normal -1.0 1.7683410698055754e-15 1.3317036936308613e-15
  outer loop
    vertex 226.10427836696263 134.4858283576701 12.500000000000048
    vertex 226.10427836696266 179.88582835766988 12.50000000000007
    vertex 226.10427836696266 134.48582835767016 6.999999999999984
  endloop
endfacet
facet normal 0.6087614290087737 -2.0567917572662184e-15 0.7933533402911945
  outer loop
    vertex 207.60427836696255 133.6858283576701 2.428692026180349
    vertex 207.85427836696243 133.68582835767023 2.236860279185619
    vertex 207.60427836696257 134.48582835767013 2.4286920261802583
  endloop
endfacet
facet normal 0.6087614290087737 -2.0567917572662184e-15 0.7933533402911945
  outer loop
    vertex 207.85427836696252 180.6858283576699 2.2368602791856076
    vertex 207.60427836696257 134.48582835767013 2.4286920261802583
    vertex 207.85427836696243 133.68582835767023 2.236860279185619
  endloop
endfacet
facet normal 0.6087614290087737 -2.0567917572662184e-15 0.7933533402911945
  outer loop
    vertex 207.60427836696263 179.88582835766994 2.428692026180372
    vertex 207.60427836696257 134.48582835767013 2.4286920261802583
    vertex 207.85427836696252 180.6858283576699 2.2368602791856076
  endloop
endfacet
facet normal 0.6087614290087737 -2.0567917572662184e-15 0.7933533402911945
  outer loop
    vertex 207.60427836696257 180.68582835766992 2.428692026180418
    vertex 207.60427836696263 179.88582835766994 2.428692026180372
    vertex 207.85427836696252 180.6858283576699 2.2368602791856076
  endloop
endfacet
facet normal 0.9914448613738025 -1.1839004204237148e-15 0.13052619222011197
  outer loop
    vertex 205.29168632237278 134.48582835767016 5.57649525193605
    vertex 205.29168632237278 179.88582835766988 5.576495251936127
    vertex 205.10427836696252 134.4858283576701 7.000000000000053
  endloop
endfacet
facet normal 0.9914448613738025 -1.1839004204237148e-15 0.13052619222011197
  outer loop
    vertex 205.10427836696257 179.88582835766982 7.00000000000001
    vertex 205.10427836696252 134.4858283576701 7.000000000000053
    vertex 205.29168632237278 179.88582835766988 5.576495251936127
  endloop
endfacet
facet normal -2.2383639638259697e-14 1.0 1.8126145979341032e-13
  outer loop
    vertex 220.60427836696275 180.6858283576699 1.5000000000000575
    vertex 222.02778311502664 180.68582835767 1.6874079554101888
    vertex 223.60427836696263 180.68582835766998 1.5000000000000226
  endloop
endfacet
facet normal -2.2383639638259697e-14 1.0 1.8126145979341032e-13
  outer loop
    vertex 223.35427836696275 180.68582835766983 2.236860279185645
    vertex 223.60427836696263 180.68582835766998 1.5000000000000226
    vertex 222.02778311502664 180.68582835767 1.6874079554101888
  endloop
endfacet
facet normal -2.2383639638259697e-14 1.0 1.8126145979341032e-13
  outer loop
    vertex 223.60427836696277 180.68582835766983 2.428692026180427
    vertex 223.60427836696263 180.68582835766998 1.5000000000000226
    vertex 223.35427836696275 180.68582835766983 2.236860279185645
  endloop
endfacet
facet normal 0.3826834323650863 -1.2937222246629198e-15 0.9238795325112883
  outer loop
    vertex 209.1807736188986 133.68582835767003 1.6874079554101593
    vertex 209.18077361889874 180.68582835767 1.6874079554101635
    vertex 207.85427836696243 133.68582835767023 2.236860279185619
  endloop
endfacet
facet normal 0.3826834323650863 -1.2937222246629198e-15 0.9238795325112883
  outer loop
    vertex 207.85427836696252 180.6858283576699 2.2368602791856076
    vertex 207.85427836696243 133.68582835767023 2.236860279185619
    vertex 209.18077361889874 180.68582835767 1.6874079554101635
  endloop
endfacet
facet normal 1.5400781063902905e-15 1.0 1.6396017227369927e-15
  outer loop
    vertex 205.1042783669625 134.48582835767007 12.500000000000105
    vertex 207.60427836696246 134.48582835767007 12.500000000000114
    vertex 205.10427836696252 134.4858283576701 7.000000000000053
  endloop
endfacet
facet normal 1.5400781063902905e-15 1.0 1.6396017227369927e-15
  outer loop
    vertex 205.29168632237278 134.48582835767016 5.57649525193605
    vertex 205.10427836696252 134.4858283576701 7.000000000000053
    vertex 207.60427836696246 134.48582835767007 12.500000000000114
  endloop
endfacet
facet normal 1.5400781063902905e-15 1.0 1.6396017227369927e-15
  outer loop
    vertex 205.60427836696263 134.48582835767004 4.821831298397217
    vertex 205.29168632237278 134.48582835767016 5.57649525193605
    vertex 207.60427836696246 134.48582835767007 12.500000000000114
  endloop
endfacet
facet normal 1.5400781063902905e-15 1.0 1.6396017227369927e-15
  outer loop
    vertex 205.84113864614818 134.4858283576701 4.249999999999929
    vertex 205.60427836696263 134.48582835767004 4.821831298397217
    vertex 207.60427836696246 134.48582835767007 12.500000000000114
  endloop
endfacet
facet normal 1.5400781063902905e-15 1.0 1.6396017227369927e-15
  outer loop
    vertex 206.71519107043653 134.4858283576701 3.1109127034739137
    vertex 205.84113864614818 134.4858283576701 4.249999999999929
    vertex 207.60427836696246 134.48582835767007 12.500000000000114
  endloop
endfacet
facet normal 1.5400781063902905e-15 1.0 1.6396017227369927e-15
  outer loop
    vertex 207.60427836696257 134.48582835767013 2.4286920261802583
    vertex 206.71519107043653 134.4858283576701 3.1109127034739137
    vertex 207.60427836696246 134.48582835767007 12.500000000000114
  endloop
endfacet
facet normal -0.9238795325112795 -7.685931563190397e-16 0.3826834323651076
  outer loop
    vertex 225.3674180877771 134.48582835767027 4.2499999999999085
    vertex 225.6042783669627 134.4858283576702 4.821831298397194
    vertex 225.36741808777714 179.8858283576697 4.249999999999978
  endloop
endfacet
facet normal -0.9238795325112795 -7.685931563190397e-16 0.3826834323651076
  outer loop
    vertex 225.60427836696275 179.88582835766962 4.821831298397263
    vertex 225.36741808777714 179.8858283576697 4.249999999999978
    vertex 225.6042783669627 134.4858283576702 4.821831298397194
  endloop
endfacet
facet normal -2.5473893806645986e-15 -2.2010567326815316e-15 1.0
  outer loop
    vertex 226.1042783669625 132.68582835767 1.4999999999999793
    vertex 226.10427836696257 133.68582835767012 1.4999999999999696
    vertex 222.20427836696257 132.68582835767003 1.499999999999962
  endloop
endfacet
facet normal -2.5473893806645986e-15 -2.2010567326815316e-15 1.0
  outer loop
    vertex 222.20427836696265 133.68582835767 1.4999999999999636
    vertex 222.20427836696257 132.68582835767003 1.499999999999962
    vertex 226.10427836696257 133.68582835767012 1.4999999999999696
  endloop
endfacet
facet normal -2.5473893806645986e-15 -2.2010567326815316e-15 1.0
  outer loop
    vertex 223.60427836696263 133.68582835767003 1.4999999999999842
    vertex 222.20427836696265 133.68582835767 1.4999999999999636
    vertex 226.10427836696257 133.68582835767012 1.4999999999999696
  endloop
endfacet
facet normal 0.7933533402912563 -2.1754473758816483e-15 0.6087614290086931
  outer loop
    vertex 216.7151910704367 180.68582835766995 3.110912703474012
    vertex 215.84113864614832 180.68582835766995 4.250000000000028
    vertex 216.7151910704365 134.48582835767007 3.110912703473999
  endloop
endfacet
facet normal 0.7933533402912563 -2.1754473758816483e-15 0.6087614290086931
  outer loop
    vertex 215.84113864614824 134.48582835767004 4.250000000000021
    vertex 216.7151910704365 134.48582835767007 3.110912703473999
    vertex 215.84113864614832 180.68582835766995 4.250000000000028
  endloop
endfacet
facet normal -0.3826834323650765 9.938932343694983e-16 0.9238795325112924
  outer loop
    vertex 212.02778311502638 133.68582835767006 1.6874079554101666
    vertex 213.35427836696257 133.68582835767015 2.2368602791856005
    vertex 212.02778311502655 180.68582835767023 1.6874079554101287
  endloop
endfacet
facet normal -0.3826834323650765 9.938932343694983e-16 0.9238795325112924
  outer loop
    vertex 213.3542783669627 180.68582835767 2.236860279185583
    vertex 212.02778311502655 180.68582835767023 1.6874079554101287
    vertex 213.35427836696257 133.68582835767015 2.2368602791856005
  endloop
endfacet
facet normal 1.0 -2.3564787752609676e-15 -3.2116813486628014e-15
  outer loop
    vertex 227.10427836696275 182.88582835767002 -8.685706563116269e-15
    vertex 227.10427836696275 182.88582835766994 12.500000000000098
    vertex 227.1042783669626 131.48582835766996 -3.732660534956032e-14
  endloop
endfacet
facet normal 1.0 -2.3564787752609676e-15 -3.2116813486628014e-15
  outer loop
    vertex 227.10427836696266 131.48582835767004 12.500000000000062
    vertex 227.1042783669626 131.48582835766996 -3.732660534956032e-14
    vertex 227.10427836696275 182.88582835766994 12.500000000000098
  endloop
endfacet
facet normal -0.9238795325112636 -7.715777856718342e-16 0.3826834323651458
  outer loop
    vertex 225.6042783669627 134.4858283576702 4.821831298397194
    vertex 225.91687041155262 134.48582835767027 5.576495251936047
    vertex 225.60427836696275 179.88582835766962 4.821831298397263
  endloop
endfacet
facet normal -0.9238795325112636 -7.715777856718342e-16 0.3826834323651458
  outer loop
    vertex 225.91687041155268 179.8858283576697 5.576495251936116
    vertex 225.60427836696275 179.88582835766962 4.821831298397263
    vertex 225.91687041155262 134.48582835767027 5.576495251936047
  endloop
endfacet
facet normal 0.3826834323650772 -1.1196370370676884e-15 0.9238795325112921
  outer loop
    vertex 219.1807736188987 133.68582835767 1.6874079554101347
    vertex 219.18077361889888 180.68582835767012 1.6874079554101271
    vertex 217.85427836696255 133.6858283576702 2.2368602791855947
  endloop
endfacet
facet normal 0.3826834323650772 -1.1196370370676884e-15 0.9238795325112921
  outer loop
    vertex 217.8542783669626 180.68582835766998 2.23686027918557
    vertex 217.85427836696255 133.6858283576702 2.2368602791855947
    vertex 219.18077361889888 180.68582835767012 1.6874079554101271
  endloop
endfacet
facet normal -1.0 5.646177969608487e-14 -5.8463928074005e-15
  outer loop
    vertex 226.10427836696257 133.68582835767012 1.4999999999999696
    vertex 226.1042783669625 132.68582835767 1.4999999999999793
    vertex 226.10427836696243 133.6858283576702 12.500000000000055
  endloop
endfacet
facet normal -1.0 5.646177969608487e-14 -5.8463928074005e-15
  outer loop
    vertex 226.10427836696243 132.68582835767006 12.500000000000064
    vertex 226.10427836696243 133.6858283576702 12.500000000000055
    vertex 226.1042783669625 132.68582835767 1.4999999999999793
  endloop
endfacet
facet normal -1.9126237558711758e-15 1.0 -1.2851887725544696e-15
  outer loop
    vertex 222.20427836696257 132.68582835767003 1.499999999999962
    vertex 222.20427836696257 132.6858283576691 5.499999999999961
    vertex 226.1042783669625 132.68582835767 1.4999999999999793
  endloop
endfacet
facet normal -1.9126237558711758e-15 1.0 -1.2851887725544696e-15
  outer loop
    vertex 226.10427836696243 132.68582835767006 12.500000000000064
    vertex 226.1042783669625 132.68582835767 1.4999999999999793
    vertex 222.20427836696257 132.6858283576691 5.499999999999961
  endloop
endfacet
facet normal -1.9126237558711758e-15 1.0 -1.2851887725544696e-15
  outer loop
    vertex 216.1042783669626 132.68582835767003 1.4999999999999951
    vertex 216.1042783669626 132.68582835767 12.500000000000057
    vertex 219.00427836696247 132.68582835767 1.499999999999989
  endloop
endfacet
facet normal -1.9126237558711758e-15 1.0 -1.2851887725544696e-15
  outer loop
    vertex 219.00427836696247 132.68582835766907 5.499999999999988
    vertex 219.00427836696247 132.68582835767 1.499999999999989
    vertex 216.1042783669626 132.68582835767 12.500000000000057
  endloop
endfacet
facet normal -1.9126237558711758e-15 1.0 -1.2851887725544696e-15
  outer loop
    vertex 226.10427836696243 132.68582835767006 12.500000000000064
    vertex 219.00427836696247 132.68582835766907 5.499999999999988
    vertex 216.1042783669626 132.68582835767 12.500000000000057
  endloop
endfacet
facet normal -1.9126237558711758e-15 1.0 -1.2851887725544696e-15
  outer loop
    vertex 222.20427836696257 132.6858283576691 5.499999999999961
    vertex 219.00427836696247 132.68582835766907 5.499999999999988
    vertex 226.10427836696243 132.68582835767006 12.500000000000064
  endloop
endfacet
facet normal -1.0119711159404404e-14 1.0 9.843994163140698e-14
  outer loop
    vertex 207.60427836696257 180.68582835766992 2.428692026180418
    vertex 207.85427836696252 180.6858283576699 2.2368602791856076
    vertex 207.60427836696257 180.68582835767 1.5000000000000242
  endloop
endfacet
facet normal -1.0119711159404404e-14 1.0 9.843994163140698e-14
  outer loop
    vertex 209.18077361889874 180.68582835767 1.6874079554101635
    vertex 207.60427836696257 180.68582835767 1.5000000000000242
    vertex 207.85427836696252 180.6858283576699 2.2368602791856076
  endloop
endfacet
facet normal -1.0119711159404404e-14 1.0 9.843994163140698e-14
  outer loop
    vertex 210.60427836696263 180.68582835767 1.500000000000023
    vertex 207.60427836696257 180.68582835767 1.5000000000000242
    vertex 209.18077361889874 180.68582835767 1.6874079554101635
  endloop
endfacet
facet normal 0.13052619222004386 -9.418985606397337e-16 0.9914448613738116
  outer loop
    vertex 219.1807736188987 133.68582835767 1.6874079554101347
    vertex 220.60427836696252 133.68582835767015 1.4999999999999996
    vertex 219.18077361889888 180.68582835767012 1.6874079554101271
  endloop
endfacet
facet normal 0.13052619222004386 -9.418985606397337e-16 0.9914448613738116
  outer loop
    vertex 220.60427836696275 180.6858283576699 1.5000000000000575
    vertex 219.18077361889888 180.68582835767012 1.6874079554101271
    vertex 220.60427836696252 133.68582835767015 1.4999999999999996
  endloop
endfacet
facet normal -8.681547544345773e-16 -1.0 -7.129822634157201e-15
  outer loop
    vertex 205.10427836696275 181.68582835766998 1.5000000000000295
    vertex 226.1042783669628 181.68582835766995 1.4999999999999845
    vertex 205.1042783669628 181.6858283576699 12.500000000000094
  endloop
endfacet
facet normal -8.681547544345773e-16 -1.0 -7.129822634157201e-15
  outer loop
    vertex 226.10427836696275 181.6858283576699 12.500000000000066
    vertex 205.1042783669628 181.6858283576699 12.500000000000094
    vertex 226.1042783669628 181.68582835766995 1.4999999999999845
  endloop
endfacet
facet normal -0.6087614290086952 -9.605943570090539e-16 0.7933533402912548
  outer loop
    vertex 223.60427836696275 134.48582835767007 2.4286920261802787
    vertex 224.4933656634888 134.48582835767039 3.1109127034738884
    vertex 223.60427836696277 179.88582835766996 2.428692026180341
  endloop
endfacet
facet normal -0.6087614290086952 -9.605943570090539e-16 0.7933533402912548
  outer loop
    vertex 224.4933656634888 179.8858283576698 3.1109127034739563
    vertex 223.60427836696277 179.88582835766996 2.428692026180341
    vertex 224.4933656634888 134.48582835767039 3.1109127034738884
  endloop
endfacet
facet normal 0.6087614290087211 -2.238085301397345e-15 0.7933533402912349
  outer loop
    vertex 217.60427836696257 134.48582835767002 2.428692026180324
    vertex 217.60427836696266 180.68582835767 2.428692026180381
    vertex 216.7151910704365 134.48582835767007 3.110912703473999
  endloop
endfacet
facet normal 0.6087614290087211 -2.238085301397345e-15 0.7933533402912349
  outer loop
    vertex 216.7151910704367 180.68582835766995 3.110912703474012
    vertex 216.7151910704365 134.48582835767007 3.110912703473999
    vertex 217.60427836696266 180.68582835767 2.428692026180381
  endloop
endfacet
facet normal 3.1416144975588415e-14 -1.0 7.935688166339238e-15
  outer loop
    vertex 223.6042783669626 133.68582835767012 12.500000000000057
    vertex 223.60427836696263 133.6858283576701 2.428692026180339
    vertex 226.10427836696243 133.6858283576702 12.500000000000055
  endloop
endfacet
facet normal 3.1416144975588415e-14 -1.0 7.935688166339238e-15
  outer loop
    vertex 223.60427836696263 133.68582835767003 1.4999999999999842
    vertex 226.10427836696243 133.6858283576702 12.500000000000055
    vertex 223.60427836696263 133.6858283576701 2.428692026180339
  endloop
endfacet
facet normal 3.1416144975588415e-14 -1.0 7.935688166339238e-15
  outer loop
    vertex 226.10427836696257 133.68582835767012 1.4999999999999696
    vertex 226.10427836696243 133.6858283576702 12.500000000000055
    vertex 223.60427836696263 133.68582835767003 1.4999999999999842
  endloop
endfacet
facet normal -0.7933533402912575 -1.1931394671069049e-15 0.6087614290086916
  outer loop
    vertex 224.4933656634888 179.8858283576698 3.1109127034739563
    vertex 224.4933656634888 134.48582835767039 3.1109127034738884
    vertex 225.36741808777714 179.8858283576697 4.249999999999978
  endloop
endfacet
facet normal -0.7933533402912575 -1.1931394671069049e-15 0.6087614290086916
  outer loop
    vertex 225.3674180877771 134.48582835767027 4.2499999999999085
    vertex 225.36741808777714 179.8858283576697 4.249999999999978
    vertex 224.4933656634888 134.48582835767039 3.1109127034738884
  endloop
endfacet
facet normal -1.0 -4.928696339946185e-14 -5.948296951452774e-15
  outer loop
    vertex 223.60427836696277 179.88582835766996 2.428692026180341
    vertex 223.60427836696275 179.88582835766994 12.500000000000085
    vertex 223.60427836696277 180.68582835766983 2.428692026180427
  endloop
endfacet
facet normal -1.0 -4.928696339946185e-14 -5.948296951452774e-15
  outer loop
    vertex 223.60427836696263 180.68582835766995 12.500000000000071
    vertex 223.60427836696277 180.68582835766983 2.428692026180427
    vertex 223.60427836696275 179.88582835766994 12.500000000000085
  endloop
endfacet
facet normal 1.0 9.935300024509016e-14 4.019733107412202e-15
  outer loop
    vertex 207.60427836696257 134.48582835767013 2.4286920261802583
    vertex 207.60427836696246 134.48582835767007 12.500000000000114
    vertex 207.60427836696255 133.6858283576701 2.428692026180349
  endloop
endfacet
facet normal 1.0 9.935300024509016e-14 4.019733107412202e-15
  outer loop
    vertex 207.60427836696257 133.6858283576701 12.500000000000101
    vertex 207.60427836696255 133.6858283576701 2.428692026180349
    vertex 207.60427836696246 134.48582835767007 12.500000000000114
  endloop
endfacet
facet normal -0.13052619222005563 -1.340235308058708e-16 0.9914448613738098
  outer loop
    vertex 222.0277831150265 133.68582835767 1.6874079554101424
    vertex 222.02778311502664 180.68582835767 1.6874079554101888
    vertex 220.60427836696252 133.68582835767015 1.4999999999999996
  endloop
endfacet
facet normal -0.13052619222005563 -1.340235308058708e-16 0.9914448613738098
  outer loop
    vertex 220.60427836696275 180.6858283576699 1.5000000000000575
    vertex 220.60427836696252 133.68582835767015 1.4999999999999996
    vertex 222.02778311502664 180.68582835767 1.6874079554101888
  endloop
endfacet
facet normal -5.627746381888093e-15 2.418920323062513e-13 -1.0
  outer loop
    vertex 212.20427836696248 131.48582835766902 5.499999999999755
    vertex 209.00427836696235 131.48582835766902 5.499999999999764
    vertex 212.20427836696248 132.68582835766912 5.499999999999986
  endloop
endfacet
facet normal -5.627746381888093e-15 2.418920323062513e-13 -1.0
  outer loop
    vertex 209.00427836696244 132.68582835766907 5.500000000000012
    vertex 212.20427836696248 132.68582835766912 5.499999999999986
    vertex 209.00427836696235 131.48582835766902 5.499999999999764
  endloop
endfacet
facet normal 0.7071067811865476 0.7071067811865476 -6.5316184833983e-16
  outer loop
    vertex 215.80427836696265 136.88582835767002 -8.064272718026017e-15
    vertex 215.80427836696265 136.88582835767002 0.9999999999999918
    vertex 219.0042783669626 133.68582835767003 -1.339216547029727e-14
  endloop
endfacet
facet normal 0.7071067811865476 0.7071067811865476 -6.5316184833983e-16
  outer loop
    vertex 219.0042783669626 133.68582835767003 0.9999999999999866
    vertex 219.0042783669626 133.68582835767003 -1.339216547029727e-14
    vertex 215.80427836696265 136.88582835767002 0.9999999999999918
  endloop
endfacet
facet normal -0.7071067811865476 -0.7071067811865476 2.3939752331426995e-15
  outer loop
    vertex 211.00427836696258 134.88582835767002 0.9999999999999833
    vertex 211.00427836696258 134.88582835767002 -2.360651559650409e-15
    vertex 212.20427836696257 133.68582835767 0.9999999999999812
  endloop
endfacet
facet normal -0.7071067811865476 -0.7071067811865476 2.3939752331426995e-15
  outer loop
    vertex 212.20427836696257 133.68582835767 -4.336580353607244e-15
    vertex 212.20427836696257 133.68582835767 0.9999999999999812
    vertex 211.00427836696258 134.88582835767002 -2.360651559650409e-15
  endloop
endfacet
facet normal 1.0 -4.4220409803417215e-14 4.935877691408399e-15
  outer loop
    vertex 219.0042783669626 133.68582835767003 -1.339216547029727e-14
    vertex 219.00427836696247 132.68582835767 1.499999999999989
    vertex 219.00427836696247 131.48582835766996 -1.7286790410289717e-14
  endloop
endfacet
facet normal 1.0 -4.4220409803417215e-14 4.935877691408399e-15
  outer loop
    vertex 219.00427836696247 131.48582835766902 5.499999999999747
    vertex 219.00427836696247 131.48582835766996 -1.7286790410289717e-14
    vertex 219.00427836696247 132.68582835767 1.499999999999989
  endloop
endfacet
facet normal 1.0 -4.4220409803417215e-14 4.935877691408399e-15
  outer loop
    vertex 219.0042783669626 133.68582835767003 0.9999999999999866
    vertex 219.00427836696247 132.68582835767 1.499999999999989
    vertex 219.0042783669626 133.68582835767003 -1.339216547029727e-14
  endloop
endfacet
facet normal 1.0 -4.4220409803417215e-14 4.935877691408399e-15
  outer loop
    vertex 219.00427836696247 132.68582835766907 5.499999999999988
    vertex 219.00427836696247 131.48582835766902 5.499999999999747
    vertex 219.00427836696247 132.68582835767 1.499999999999989
  endloop
endfacet
facet normal 1.0 -4.4220409803417215e-14 4.935877691408399e-15
  outer loop
    vertex 219.00427836696247 132.68582835767 1.499999999999989
    vertex 219.0042783669626 133.68582835767003 0.9999999999999866
    vertex 219.00427836696255 133.68582835767006 1.4999999999999905
  endloop
endfacet
facet normal -6.245004513516576e-17 -1.0 -3.948249375042487e-16
  outer loop
    vertex 204.10427836696252 138.08582835767 1.0000000000000078
    vertex 204.10427836696252 138.08582835767 7.894544859055242e-15
    vertex 217.80427836696262 138.08582835767 0.9999999999999917
  endloop
endfacet
facet normal -6.245004513516576e-17 -1.0 -3.948249375042487e-16
  outer loop
    vertex 217.80427836696262 138.08582835767 -8.23482088177702e-15
    vertex 217.80427836696262 138.08582835767 0.9999999999999917
    vertex 204.10427836696252 138.08582835767 7.894544859055242e-15
  endloop
endfacet
facet normal 6.245004513516568e-17 1.0 4.726966369106605e-16
  outer loop
    vertex 204.10427836696252 136.88582835767002 7.516660497455456e-15
    vertex 204.10427836696252 136.88582835767002 1.0000000000000075
    vertex 215.80427836696265 136.88582835767002 -8.064272718026017e-15
  endloop
endfacet
facet normal 6.245004513516568e-17 1.0 4.726966369106605e-16
  outer loop
    vertex 215.80427836696265 136.88582835767002 0.9999999999999918
    vertex 215.80427836696265 136.88582835767002 -8.064272718026017e-15
    vertex 204.10427836696252 136.88582835767002 1.0000000000000075
  endloop
endfacet
facet normal -1.3514490014541673e-15 1.870624119957156e-15 -1.0
  outer loop
    vertex 222.20427836696265 133.68582835767 0.999999999999971
    vertex 219.0042783669626 133.68582835767003 0.9999999999999866
    vertex 217.80427836696262 138.08582835767 0.9999999999999917
  endloop
endfacet
facet normal -1.3514490014541673e-15 1.870624119957156e-15 -1.0
  outer loop
    vertex 215.80427836696265 136.88582835767002 0.9999999999999918
    vertex 217.80427836696262 138.08582835767 0.9999999999999917
    vertex 219.0042783669626 133.68582835767003 0.9999999999999866
  endloop
endfacet
facet normal -1.3514490014541673e-15 1.870624119957156e-15 -1.0
  outer loop
    vertex 204.10427836696252 136.88582835767002 1.0000000000000075
    vertex 217.80427836696262 138.08582835767 0.9999999999999917
    vertex 215.80427836696265 136.88582835767002 0.9999999999999918
  endloop
endfacet
facet normal -1.3514490014541673e-15 1.870624119957156e-15 -1.0
  outer loop
    vertex 204.10427836696252 138.08582835767 1.0000000000000078
    vertex 217.80427836696262 138.08582835767 0.9999999999999917
    vertex 204.10427836696252 136.88582835767002 1.0000000000000075
  endloop
endfacet
facet normal -1.5472641913261665e-15 3.948249375042485e-16 -1.0
  outer loop
    vertex 227.1042783669626 131.48582835766996 -3.732660534956032e-14
    vertex 222.20427836696246 131.48582835766996 -3.080125725076881e-14
    vertex 227.10427836696275 182.88582835767002 -8.685706563116269e-15
  endloop
endfacet
facet normal -1.5472641913261665e-15 3.948249375042485e-16 -1.0
  outer loop
    vertex 222.20427836696265 133.68582835767 -2.893348322010779e-14
    vertex 227.10427836696275 182.88582835767002 -8.685706563116269e-15
    vertex 222.20427836696246 131.48582835766996 -3.080125725076881e-14
  endloop
endfacet
facet normal -1.5472641913261665e-15 3.948249375042485e-16 -1.0
  outer loop
    vertex 217.80427836696262 138.08582835767 -8.23482088177702e-15
    vertex 227.10427836696275 182.88582835767002 -8.685706563116269e-15
    vertex 222.20427836696265 133.68582835767 -2.893348322010779e-14
  endloop
endfacet
facet normal -1.5472641913261665e-15 3.948249375042485e-16 -1.0
  outer loop
    vertex 204.10427836696252 138.08582835767 7.894544859055242e-15
    vertex 227.10427836696275 182.88582835767002 -8.685706563116269e-15
    vertex 217.80427836696262 138.08582835767 -8.23482088177702e-15
  endloop
endfacet
facet normal -1.5472641913261665e-15 3.948249375042485e-16 -1.0
  outer loop
    vertex 204.1042783669628 182.88582835767005 1.7361032856253578e-14
    vertex 227.10427836696275 182.88582835767002 -8.685706563116269e-15
    vertex 204.10427836696252 138.08582835767 7.894544859055242e-15
  endloop
endfacet
facet normal -6.245004513516234e-17 -1.0 2.0375160257346275e-15
  outer loop
    vertex 204.10427836696252 134.88582835767002 0.9999999999999926
    vertex 204.10427836696252 134.88582835767002 6.82810392640274e-15
    vertex 211.00427836696258 134.88582835767002 0.9999999999999833
  endloop
endfacet
facet normal -6.245004513516234e-17 -1.0 2.0375160257346275e-15
  outer loop
    vertex 211.00427836696258 134.88582835767002 -2.360651559650409e-15
    vertex 211.00427836696258 134.88582835767002 0.9999999999999833
    vertex 204.10427836696252 134.88582835767002 6.82810392640274e-15
  endloop
endfacet
facet normal -1.3480762169610702e-15 -2.0375160257346275e-15 -1.0
  outer loop
    vertex 212.20427836696257 133.68582835767 0.9999999999999812
    vertex 209.0042783669625 133.68582835767006 0.9999999999999969
    vertex 211.00427836696258 134.88582835767002 0.9999999999999833
  endloop
endfacet
facet normal -1.3480762169610702e-15 -2.0375160257346275e-15 -1.0
  outer loop
    vertex 204.10427836696252 133.68582835767 0.9999999999999922
    vertex 204.10427836696252 134.88582835767002 0.9999999999999926
    vertex 209.0042783669625 133.68582835767006 0.9999999999999969
  endloop
endfacet
facet normal -1.3480762169610702e-15 -2.0375160257346275e-15 -1.0
  outer loop
    vertex 211.00427836696258 134.88582835767002 0.9999999999999833
    vertex 209.0042783669625 133.68582835767006 0.9999999999999969
    vertex 204.10427836696252 134.88582835767002 0.9999999999999926
  endloop
endfacet
facet normal -1.397734981432223e-15 4.727250832953864e-16 -1.0
  outer loop
    vertex 219.00427836696247 131.48582835766996 -1.7286790410289717e-14
    vertex 212.20427836696248 131.48582835766996 -4.441875332675985e-15
    vertex 219.0042783669626 133.68582835767003 -1.339216547029727e-14
  endloop
endfacet
facet normal -1.397734981432223e-15 4.727250832953864e-16 -1.0
  outer loop
    vertex 212.20427836696257 133.68582835767 -4.336580353607244e-15
    vertex 219.0042783669626 133.68582835767003 -1.339216547029727e-14
    vertex 212.20427836696248 131.48582835766996 -4.441875332675985e-15
  endloop
endfacet
facet normal -1.397734981432223e-15 4.727250832953864e-16 -1.0
  outer loop
    vertex 211.00427836696258 134.88582835767002 -2.360651559650409e-15
    vertex 219.0042783669626 133.68582835767003 -1.339216547029727e-14
    vertex 212.20427836696257 133.68582835767 -4.336580353607244e-15
  endloop
endfacet
facet normal -1.397734981432223e-15 4.727250832953864e-16 -1.0
  outer loop
    vertex 215.80427836696265 136.88582835767002 -8.064272718026017e-15
    vertex 219.0042783669626 133.68582835767003 -1.339216547029727e-14
    vertex 211.00427836696258 134.88582835767002 -2.360651559650409e-15
  endloop
endfacet
facet normal -1.397734981432223e-15 4.727250832953864e-16 -1.0
  outer loop
    vertex 204.10427836696252 134.88582835767002 6.82810392640274e-15
    vertex 215.80427836696265 136.88582835767002 -8.064272718026017e-15
    vertex 211.00427836696258 134.88582835767002 -2.360651559650409e-15
  endloop
endfacet
facet normal -1.397734981432223e-15 4.727250832953864e-16 -1.0
  outer loop
    vertex 204.10427836696252 136.88582835767002 7.516660497455456e-15
    vertex 215.80427836696265 136.88582835767002 -8.064272718026017e-15
    vertex 204.10427836696252 134.88582835767002 6.82810392640274e-15
  endloop
endfacet
facet normal -0.7071067811865448 -0.7071067811865502 8.148976112830378e-16
  outer loop
    vertex 217.80427836696262 138.08582835767 0.9999999999999917
    vertex 217.80427836696262 138.08582835767 -8.23482088177702e-15
    vertex 222.20427836696265 133.68582835767 0.999999999999971
  endloop
endfacet
facet normal -0.7071067811865448 -0.7071067811865502 8.148976112830378e-16
  outer loop
    vertex 222.20427836696265 133.68582835767 -2.893348322010779e-14
    vertex 222.20427836696265 133.68582835767 0.999999999999971
    vertex 217.80427836696262 138.08582835767 -8.23482088177702e-15
  endloop
endfacet
facet normal -1.0 8.125611798778885e-14 6.194785362548507e-16
  outer loop
    vertex 222.20427836696265 133.68582835767 -2.893348322010779e-14
    vertex 222.20427836696246 131.48582835766996 -3.080125725076881e-14
    vertex 222.20427836696265 133.68582835767 0.999999999999971
  endloop
endfacet
facet normal -1.0 8.125611798778885e-14 6.194785362548507e-16
  outer loop
    vertex 222.20427836696257 132.68582835767003 1.499999999999962
    vertex 222.20427836696265 133.68582835767 0.999999999999971
    vertex 222.20427836696246 131.48582835766996 -3.080125725076881e-14
  endloop
endfacet
facet normal -1.0 8.125611798778885e-14 6.194785362548507e-16
  outer loop
    vertex 222.20427836696246 131.48582835766902 5.499999999999733
    vertex 222.20427836696257 132.68582835767003 1.499999999999962
    vertex 222.20427836696246 131.48582835766996 -3.080125725076881e-14
  endloop
endfacet
facet normal -1.0 8.125611798778885e-14 6.194785362548507e-16
  outer loop
    vertex 222.20427836696265 133.68582835767 1.4999999999999636
    vertex 222.20427836696265 133.68582835767 0.999999999999971
    vertex 222.20427836696257 132.68582835767003 1.499999999999962
  endloop
endfacet
facet normal -1.0 8.125611798778885e-14 6.194785362548507e-16
  outer loop
    vertex 222.20427836696257 132.6858283576691 5.499999999999961
    vertex 222.20427836696257 132.68582835767003 1.499999999999962
    vertex 222.20427836696246 131.48582835766902 5.499999999999733
  endloop
endfacet
facet normal -9.145603775429411e-15 1.0 -2.0375160257346156e-15
  outer loop
    vertex 204.10427836696252 133.68582835767 6.450219564802954e-15
    vertex 204.10427836696252 133.68582835767 0.9999999999999922
    vertex 209.0042783669625 133.68582835767006 1.1204737396203315e-14
  endloop
endfacet
facet normal -9.145603775429411e-15 1.0 -2.0375160257346156e-15
  outer loop
    vertex 209.0042783669625 133.68582835767006 0.9999999999999969
    vertex 209.0042783669625 133.68582835767006 1.1204737396203315e-14
    vertex 204.10427836696252 133.68582835767 0.9999999999999922
  endloop
endfacet
facet normal -0.6087614290087165 6.405423430031681e-17 0.7933533402912383
  outer loop
    vertex 223.60427836696263 133.6858283576701 2.428692026180339
    vertex 223.60427836696275 134.48582835767007 2.4286920261802787
    vertex 223.3542783669627 133.68582835767012 2.2368602791855765
  endloop
endfacet
facet normal -0.6087614290087165 6.405423430031681e-17 0.7933533402912383
  outer loop
    vertex 223.35427836696275 180.68582835766983 2.236860279185645
    vertex 223.3542783669627 133.68582835767012 2.2368602791855765
    vertex 223.60427836696275 134.48582835767007 2.4286920261802787
  endloop
endfacet
facet normal -0.6087614290087165 6.405423430031681e-17 0.7933533402912383
  outer loop
    vertex 223.60427836696277 179.88582835766996 2.428692026180341
    vertex 223.35427836696275 180.68582835766983 2.236860279185645
    vertex 223.60427836696275 134.48582835767007 2.4286920261802787
  endloop
endfacet
facet normal -0.6087614290087165 6.405423430031681e-17 0.7933533402912383
  outer loop
    vertex 223.60427836696277 180.68582835766983 2.428692026180427
    vertex 223.35427836696275 180.68582835766983 2.236860279185645
    vertex 223.60427836696277 179.88582835766996 2.428692026180341
  endloop
endfacet
endsolid Pinpad
