solid Pinpad
facet normal 0.0 0.0 1.0
  outer loop
    vertex 21.657987387160173 298.79889546208506 0.9999999999999999
    vertex 24.857987387160176 300.898895462085 0.9999999999999999
    vertex 21.657987387160173 318.79889546208506 0.9999999999999999
  endloop
endfacet
facet normal 0.0 0.0 1.0
  outer loop
    vertex 24.857987387160176 300.898895462085 0.9999999999999999
    vertex 21.657987387160173 298.79889546208506 0.9999999999999999
    vertex 27.157987387160173 298.79889546208506 0.9999999999999999
  endloop
endfacet
facet normal 0.0 0.0 1.0
  outer loop
    vertex 24.857987387160176 300.898895462085 0.9999999999999999
    vertex 27.157987387160173 298.79889546208506 0.9999999999999999
    vertex 26.657987387160173 300.898895462085 0.9999999999999999
  endloop
endfacet
facet normal 0.0 0.0 1.0
  outer loop
    vertex 26.657987387160173 300.898895462085 0.9999999999999999
    vertex 27.157987387160173 298.79889546208506 0.9999999999999999
    vertex 26.657987387160173 316.69889546208503 0.9999999999999999
  endloop
endfacet
facet normal 0.0 0.0 1.0
  outer loop
    vertex 21.657987387160173 318.79889546208506 0.9999999999999999
    vertex 24.857987387160176 316.69889546208503 0.9999999999999999
    vertex 27.157987387160173 318.79889546208506 0.9999999999999999
  endloop
endfacet
facet normal 0.0 0.0 1.0
  outer loop
    vertex 24.857987387160176 316.69889546208503 0.9999999999999999
    vertex 21.657987387160173 318.79889546208506 0.9999999999999999
    vertex 24.857987387160176 300.898895462085 0.9999999999999999
  endloop
endfacet
facet normal 0.0 0.0 1.0
  outer loop
    vertex 27.157987387160173 318.79889546208506 0.9999999999999999
    vertex 24.857987387160176 316.69889546208503 0.9999999999999999
    vertex 26.657987387160173 316.69889546208503 0.9999999999999999
  endloop
endfacet
facet normal 0.0 0.0 1.0
  outer loop
    vertex 27.157987387160173 318.79889546208506 0.9999999999999999
    vertex 26.657987387160173 316.69889546208503 0.9999999999999999
    vertex 27.157987387160173 298.79889546208506 0.9999999999999999
  endloop
endfacet
facet normal 0.0 0.0 -1.0
  outer loop
    vertex 27.157987387160173 318.79889546208506 0.3
    vertex 21.657987387160173 298.79889546208506 0.3
    vertex 21.657987387160173 318.79889546208506 0.3
  endloop
endfacet
facet normal 0.0 0.0 -1.0
  outer loop
    vertex 21.657987387160173 298.79889546208506 0.3
    vertex 27.157987387160173 318.79889546208506 0.3
    vertex 27.157987387160173 298.79889546208506 0.3
  endloop
endfacet
facet normal 1.0 0.0 0.0
  outer loop
    vertex 27.157987387160173 318.79889546208506 0.3
    vertex 27.157987387160173 298.79889546208506 0.9999999999999999
    vertex 27.157987387160173 298.79889546208506 0.3
  endloop
endfacet
facet normal 1.0 0.0 0.0
  outer loop
    vertex 27.157987387160173 298.79889546208506 0.9999999999999999
    vertex 27.157987387160173 318.79889546208506 0.3
    vertex 27.157987387160173 318.79889546208506 0.9999999999999999
  endloop
endfacet
facet normal 0.0 -1.0 0.0
  outer loop
    vertex 26.657987387160173 300.898895462085 4.5
    vertex 24.857987387160176 300.898895462085 0.9999999999999999
    vertex 26.657987387160173 300.898895462085 0.9999999999999999
  endloop
endfacet
facet normal 0.0 -1.0 0.0
  outer loop
    vertex 24.857987387160176 300.898895462085 0.9999999999999999
    vertex 26.657987387160173 300.898895462085 4.5
    vertex 24.857987387160176 300.898895462085 4.5
  endloop
endfacet
facet normal 0.0 0.0 1.0
  outer loop
    vertex 26.657987387160173 300.898895462085 4.5
    vertex 24.857987387160176 316.69889546208503 4.5
    vertex 24.857987387160176 300.898895462085 4.5
  endloop
endfacet
facet normal 0.0 0.0 1.0
  outer loop
    vertex 24.857987387160176 316.69889546208503 4.5
    vertex 26.657987387160173 300.898895462085 4.5
    vertex 26.657987387160173 316.69889546208503 4.5
  endloop
endfacet
facet normal -1.0 0.0 0.0
  outer loop
    vertex 24.857987387160176 316.69889546208503 4.5
    vertex 24.857987387160176 300.898895462085 0.9999999999999999
    vertex 24.857987387160176 300.898895462085 4.5
  endloop
endfacet
facet normal -1.0 0.0 0.0
  outer loop
    vertex 24.857987387160176 300.898895462085 0.9999999999999999
    vertex 24.857987387160176 316.69889546208503 4.5
    vertex 24.857987387160176 316.69889546208503 0.9999999999999999
  endloop
endfacet
facet normal 0.0 1.0 0.0
  outer loop
    vertex 24.857987387160176 316.69889546208503 4.5
    vertex 26.657987387160173 316.69889546208503 0.9999999999999999
    vertex 24.857987387160176 316.69889546208503 0.9999999999999999
  endloop
endfacet
facet normal 0.0 1.0 0.0
  outer loop
    vertex 26.657987387160173 316.69889546208503 0.9999999999999999
    vertex 24.857987387160176 316.69889546208503 4.5
    vertex 26.657987387160173 316.69889546208503 4.5
  endloop
endfacet
facet normal 0.0 1.0 0.0
  outer loop
    vertex 21.657987387160173 318.79889546208506 0.9999999999999999
    vertex 27.157987387160173 318.79889546208506 0.3
    vertex 21.657987387160173 318.79889546208506 0.3
  endloop
endfacet
facet normal 0.0 1.0 0.0
  outer loop
    vertex 27.157987387160173 318.79889546208506 0.3
    vertex 21.657987387160173 318.79889546208506 0.9999999999999999
    vertex 27.157987387160173 318.79889546208506 0.9999999999999999
  endloop
endfacet
facet normal -1.0 0.0 0.0
  outer loop
    vertex 21.657987387160173 318.79889546208506 0.9999999999999999
    vertex 21.657987387160173 298.79889546208506 0.3
    vertex 21.657987387160173 298.79889546208506 0.9999999999999999
  endloop
endfacet
facet normal -1.0 0.0 0.0
  outer loop
    vertex 21.657987387160173 298.79889546208506 0.3
    vertex 21.657987387160173 318.79889546208506 0.9999999999999999
    vertex 21.657987387160173 318.79889546208506 0.3
  endloop
endfacet
facet normal 0.0 -1.0 0.0
  outer loop
    vertex 27.157987387160173 298.79889546208506 0.9999999999999999
    vertex 21.657987387160173 298.79889546208506 0.3
    vertex 27.157987387160173 298.79889546208506 0.3
  endloop
endfacet
facet normal 0.0 -1.0 0.0
  outer loop
    vertex 21.657987387160173 298.79889546208506 0.3
    vertex 27.157987387160173 298.79889546208506 0.9999999999999999
    vertex 21.657987387160173 298.79889546208506 0.9999999999999999
  endloop
endfacet
facet normal 1.0 0.0 0.0
  outer loop
    vertex 26.657987387160173 316.69889546208503 0.9999999999999999
    vertex 26.657987387160173 300.898895462085 4.5
    vertex 26.657987387160173 300.898895462085 0.9999999999999999
  endloop
endfacet
facet normal 1.0 0.0 0.0
  outer loop
    vertex 26.657987387160173 300.898895462085 4.5
    vertex 26.657987387160173 316.69889546208503 0.9999999999999999
    vertex 26.657987387160173 316.69889546208503 4.5
  endloop
endfacet
facet normal 0.0 0.0 1.0
  outer loop
    vertex 26.657987387160173 300.898895462085 0.9999999999999999
    vertex 24.857987387160176 316.69889546208503 0.9999999999999999
    vertex 24.857987387160176 300.898895462085 0.9999999999999999
  endloop
endfacet
facet normal 0.0 0.0 1.0
  outer loop
    vertex 24.857987387160176 316.69889546208503 0.9999999999999999
    vertex 26.657987387160173 300.898895462085 0.9999999999999999
    vertex 26.657987387160173 316.69889546208503 0.9999999999999999
  endloop
endfacet
endsolid Pinpad
