solid Pinpad_Case
facet normal -7.137125100694567e-16 4.755504070037787e-18 -1.0
  outer loop
    vertex 279.91572559877415 143.18448175773014 1.2689849171465539e-14
    vertex 280.3077255987741 143.56080175773013 1.0574874309554616e-14
    vertex 295.39972559877407 143.18448175773005 1.4099832412739487e-15
  endloop
endfacet
facet normal -7.137125100694567e-16 4.755504070037787e-18 -1.0
  outer loop
    vertex 280.3077255987741 143.56080175773013 1.0574874309554616e-14
    vertex 279.91572559877415 143.18448175773014 1.2689849171465539e-14
    vertex 279.9157255987742 147.88848157828681 1.2689849171465539e-14
  endloop
endfacet
facet normal -7.137125100694567e-16 4.755504070037787e-18 -1.0
  outer loop
    vertex 280.3077255987741 143.56080175773013 1.0574874309554616e-14
    vertex 279.9157255987742 147.88848157828681 1.2689849171465539e-14
    vertex 280.3077255987742 147.5121615782868 1.0574874309554616e-14
  endloop
endfacet
facet normal -7.137125100694567e-16 4.755504070037787e-18 -1.0
  outer loop
    vertex 280.3077255987742 147.5121615782868 1.0574874309554616e-14
    vertex 279.9157255987742 147.88848157828681 1.2689849171465539e-14
    vertex 295.00772559877413 147.51216157828674 1.4099832412739487e-15
  endloop
endfacet
facet normal -7.137125100694567e-16 4.755504070037787e-18 -1.0
  outer loop
    vertex 295.39972559877407 143.18448175773005 1.4099832412739487e-15
    vertex 295.0077255987741 143.56080175773008 1.4099832412739487e-15
    vertex 295.3997255987741 147.88848157828673 1.4099832412739487e-15
  endloop
endfacet
facet normal -7.137125100694567e-16 4.755504070037787e-18 -1.0
  outer loop
    vertex 295.0077255987741 143.56080175773008 1.4099832412739487e-15
    vertex 295.39972559877407 143.18448175773005 1.4099832412739487e-15
    vertex 280.3077255987741 143.56080175773013 1.0574874309554616e-14
  endloop
endfacet
facet normal -7.137125100694567e-16 4.755504070037787e-18 -1.0
  outer loop
    vertex 295.3997255987741 147.88848157828673 1.4099832412739487e-15
    vertex 295.0077255987741 143.56080175773008 1.4099832412739487e-15
    vertex 295.00772559877413 147.51216157828674 1.4099832412739487e-15
  endloop
endfacet
facet normal -7.137125100694567e-16 4.755504070037787e-18 -1.0
  outer loop
    vertex 295.3997255987741 147.88848157828673 1.4099832412739487e-15
    vertex 295.00772559877413 147.51216157828674 1.4099832412739487e-15
    vertex 279.9157255987742 147.88848157828681 1.2689849171465539e-14
  endloop
endfacet
facet normal 1.414320172915794e-13 -2.9286831839570285e-12 1.0
  outer loop
    vertex 295.39972559877407 146.4772815782867 3.6015000014730596
    vertex 279.9157255987741 144.59568175773018 3.6015000014631826
    vertex 295.39972559877407 144.5956817577301 3.601500001463172
  endloop
endfacet
facet normal 1.414320172915794e-13 -2.9286831839570285e-12 1.0
  outer loop
    vertex 279.9157255987741 144.59568175773018 3.6015000014631826
    vertex 295.39972559877407 146.4772815782867 3.6015000014730596
    vertex 279.91572559877403 146.47728157828678 3.6015000014730707
  endloop
endfacet
facet normal -1.0 6.1326938725554865e-15 -2.92304968011648e-14
  outer loop
    vertex 279.9157255987742 147.88848157828681 1.2689849171465539e-14
    vertex 279.9157255987741 144.59568175773018 3.6015000014631826
    vertex 279.91572559877403 146.47728157828678 3.6015000014730707
  endloop
endfacet
facet normal -1.0 6.1326938725554865e-15 -2.92304968011648e-14
  outer loop
    vertex 279.9157255987741 144.59568175773018 3.6015000014631826
    vertex 279.9157255987742 147.88848157828681 1.2689849171465539e-14
    vertex 279.91572559877415 143.18448175773014 1.2689849171465539e-14
  endloop
endfacet
facet normal -4.7801426265044366e-15 -0.9054589360251335 0.42443387608935423
  outer loop
    vertex 279.91572559877415 143.18448175773014 1.2689849171465539e-14
    vertex 295.39972559877407 144.5956817577301 3.601500001463172
    vertex 279.9157255987741 144.59568175773018 3.6015000014631826
  endloop
endfacet
facet normal -4.7801426265044366e-15 -0.9054589360251335 0.42443387608935423
  outer loop
    vertex 295.39972559877407 144.5956817577301 3.601500001463172
    vertex 279.91572559877415 143.18448175773014 1.2689849171465539e-14
    vertex 295.39972559877407 143.18448175773005 1.4099832412739487e-15
  endloop
endfacet
facet normal 1.0 -3.253947282653632e-15 2.207039226787658e-15
  outer loop
    vertex 295.39972559877407 144.5956817577301 3.601500001463172
    vertex 295.3997255987741 147.88848157828673 1.4099832412739487e-15
    vertex 295.39972559877407 146.4772815782867 3.6015000014730596
  endloop
endfacet
facet normal 1.0 -3.253947282653632e-15 2.207039226787658e-15
  outer loop
    vertex 295.3997255987741 147.88848157828673 1.4099832412739487e-15
    vertex 295.39972559877407 144.5956817577301 3.601500001463172
    vertex 295.39972559877407 143.18448175773005 1.4099832412739487e-15
  endloop
endfacet
facet normal 5.39509703642091e-15 0.9054589360255814 0.42443387608839866
  outer loop
    vertex 295.39972559877407 146.4772815782867 3.6015000014730596
    vertex 279.9157255987742 147.88848157828681 1.2689849171465539e-14
    vertex 279.91572559877403 146.47728157828678 3.6015000014730707
  endloop
endfacet
facet normal 5.39509703642091e-15 0.9054589360255814 0.42443387608839866
  outer loop
    vertex 279.9157255987742 147.88848157828681 1.2689849171465539e-14
    vertex 295.39972559877407 146.4772815782867 3.6015000014730596
    vertex 295.3997255987741 147.88848157828673 1.4099832412739487e-15
  endloop
endfacet
facet normal -7.051237900635902e-16 -3.1362208893983216e-12 -1.0
  outer loop
    vertex 280.3077255987739 146.26224157822287 3.1899000014678385
    vertex 295.0077255987741 144.8107217577954 3.189900001473274
    vertex 280.3077255987741 144.81072175779548 3.189900001473284
  endloop
endfacet
facet normal -7.051237900635902e-16 -3.1362208893983216e-12 -1.0
  outer loop
    vertex 295.0077255987741 144.8107217577954 3.189900001473274
    vertex 280.3077255987739 146.26224157822287 3.1899000014678385
    vertex 295.0077255987739 146.26224157822278 3.189900001467828
  endloop
endfacet
facet normal 1.0 -5.9774502554572026e-15 4.5882585344345223e-14
  outer loop
    vertex 280.3077255987741 143.56080175773013 1.0574874309554616e-14
    vertex 280.3077255987739 146.26224157822287 3.1899000014678385
    vertex 280.3077255987741 144.81072175779548 3.189900001473284
  endloop
endfacet
facet normal 1.0 -5.9774502554572026e-15 4.5882585344345223e-14
  outer loop
    vertex 280.3077255987739 146.26224157822287 3.1899000014678385
    vertex 280.3077255987741 143.56080175773013 1.0574874309554616e-14
    vertex 280.3077255987742 147.5121615782868 1.0574874309554616e-14
  endloop
endfacet
facet normal -5.7598791698164236e-15 -0.9054589360255806 -0.42443387608840033
  outer loop
    vertex 280.3077255987742 147.5121615782868 1.0574874309554616e-14
    vertex 295.0077255987739 146.26224157822278 3.189900001467828
    vertex 280.3077255987739 146.26224157822287 3.1899000014678385
  endloop
endfacet
facet normal -5.7598791698164236e-15 -0.9054589360255806 -0.42443387608840033
  outer loop
    vertex 295.0077255987739 146.26224157822278 3.189900001467828
    vertex 280.3077255987742 147.5121615782868 1.0574874309554616e-14
    vertex 295.00772559877413 147.51216157828674 1.4099832412739487e-15
  endloop
endfacet
facet normal 5.183033093507815e-15 0.9054589360256764 -0.4244338760881963
  outer loop
    vertex 295.0077255987741 144.8107217577954 3.189900001473274
    vertex 280.3077255987741 143.56080175773013 1.0574874309554616e-14
    vertex 280.3077255987741 144.81072175779548 3.189900001473284
  endloop
endfacet
facet normal 5.183033093507815e-15 0.9054589360256764 -0.4244338760881963
  outer loop
    vertex 280.3077255987741 143.56080175773013 1.0574874309554616e-14
    vertex 295.0077255987741 144.8107217577954 3.189900001473274
    vertex 295.0077255987741 143.56080175773008 1.4099832412739487e-15
  endloop
endfacet
facet normal -1.0 1.1726250079015641e-14 -3.0600186349181184e-14
  outer loop
    vertex 295.0077255987739 146.26224157822278 3.189900001467828
    vertex 295.0077255987741 143.56080175773008 1.4099832412739487e-15
    vertex 295.0077255987741 144.8107217577954 3.189900001473274
  endloop
endfacet
facet normal -1.0 1.1726250079015641e-14 -3.0600186349181184e-14
  outer loop
    vertex 295.0077255987741 143.56080175773008 1.4099832412739487e-15
    vertex 295.0077255987739 146.26224157822278 3.189900001467828
    vertex 295.00772559877413 147.51216157828674 1.4099832412739487e-15
  endloop
endfacet
endsolid Pinpad_Case
